<?xml version="1.0" standalone="no"?>
<!DOCTYPE svg PUBLIC "-//W3C//DTD SVG 1.1//EN" "http://www.w3.org/Graphics/SVG/1.1/DTD/svg11.dtd" >
<!--
2013-9-30: Created.
-->
<svg>
<metadata>
Created by iconfont
</metadata>
<defs>

<font id="iconfont" horiz-adv-x="1024" >
  <font-face
    font-family="iconfont"
    font-weight="500"
    font-stretch="normal"
    units-per-em="1024"
    ascent="896"
    descent="-128"
  />
    <missing-glyph />
    
    <glyph glyph-name="qq" unicode="&#58891;" d="M506.055 15.807c0-43.506-63.616-78.773-142.089-78.773s-142.089 35.268-142.089 78.773 63.616 78.773 142.089 78.773 142.089-35.268 142.089-78.773zM659.44 94.58c-78.474 0-142.089-35.268-142.089-78.773s63.616-78.773 142.089-78.773 142.089 35.268 142.089 78.773-63.616 78.773-142.089 78.773zM825.904 393.622s-10.753 11.024-22.295 21.221v125.922c0 161.052-130.559 291.611-291.611 291.611s-291.61-130.559-291.61-291.611v-125.922c-11.541-10.197-22.295-21.221-22.295-21.221-19.024-28.537-64.207-102.257-64.207-171.815s19.024-81.449 26.159-82.044c6.617-0.552 31.131 6.063 60.263 50.655 39.426-131.1 154.971-226.037 291.394-226.037 136.639 0 252.337 95.236 291.584 226.658 29.31-45.151 54.020-51.829 60.668-51.276 7.134 0.595 26.159 12.485 26.159 82.044s-45.184 143.278-64.208 171.815zM297.455 343.683c-2.211-15.305-3.473-32.977-3.473-50.944 0-0.065 0-0.13 0-0.195-0-159.236 99.199-288.33 221.567-288.33s221.567 129.094 221.567 288.34c0 0.051 0 0.112 0 0.173 0 17.971-1.262 35.647-3.703 52.945l-435.958-1.99zM435.307 698.609c-32.506 0-58.858-35.734-58.858-79.814s26.351-79.814 58.858-79.814 58.858 35.734 58.858 79.814c0 44.080-26.352 79.814-58.858 79.814zM445.117 585.948c-11.82 0-21.402 14.639-21.402 32.699s9.582 32.699 21.402 32.699c11.82 0 21.402-14.639 21.402-32.699s-9.582-32.699-21.402-32.699zM590.476 698.609c-32.506 0-58.858-35.734-58.858-79.814s26.351-79.814 58.858-79.814 58.858 35.734 58.858 79.814c-0.001 44.080-26.352 79.814-58.858 79.814zM600.409 615.822l-0.031-0.005c0.001-0.021 0.024-0.034 0.024-0.055 0-0.896-0.727-1.623-1.623-1.623-0.739 0-1.26 0.544-1.455 1.219l-0.062-0.009v-0.149c-3.748 9.332-10.383 15.635-18.080 15.635-7.693 0-14.325-6.296-18.075-15.621l-0.059 0.037-0.055 0.012c-0.264-0.558-0.722-1.003-1.38-1.003-0-0-0.001-0-0.001-0-0.91 0-1.648 0.738-1.648 1.648 0 0 0 0.001 0 0.001-0 0.016 0.017 0.026 0.017 0.041l-0.036 0.008c-0.058 0.895-0.167 1.768-0.167 2.688 0 18.059 9.582 32.699 21.402 32.699s21.402-14.639 21.402-32.699c0-0.966-0.111-1.884-0.174-2.823zM281.188 359.734c-5.351-26.753-16.646-146.845-11.296-173.599s27.855-22.286 60.047-22.592c31.212-0.297 67.775-8.918 68.369 30.321 0.595 39.238 0.595 116.525 9.513 145.062 8.917 28.537-126.632 20.808-126.632 20.808zM274.071 302.412l125.538-40.585c1.090 30.821 3.295 61.369 8.211 77.101 8.918 28.537-126.632 20.808-126.632 20.808-1.948-9.74-4.684-31.851-7.117-57.324zM512.595 428.104c97.846 0 177.166 35.671 177.166 57.668 0 16.646-79.32 33.888-177.166 33.888-97.845 0-177.166-15.458-177.166-33.888 0-20.809 79.32-57.668 177.166-57.668zM514.378 406.701s112.363-1.189 202.136 36.861c89.772 38.049 88.88 42.359 98.69 42.359 9.809 0 21.402-14.124 26.307-39.611 4.905-25.487 10.702-45.552-10.256-58.038-20.956-12.484-158.29-93.19-313.013-93.19h-7.729c-154.723 0-292.057 80.706-313.013 93.19s-15.16 32.549-10.256 58.038c4.905 25.487 16.498 39.611 26.307 39.611s8.918-4.31 98.69-42.359 202.137-36.861 202.137-36.861z"  horiz-adv-x="1024" />

    
    <glyph glyph-name="weixin4" unicode="&#59023;" d="M146.285714 896h731.428572a146.285714 146.285714 0 0 0 146.285714-146.285714v-731.428572a146.285714 146.285714 0 0 0-146.285714-146.285714H146.285714a146.285714 146.285714 0 0 0-146.285714 146.285714V749.714286a146.285714 146.285714 0 0 0 146.285714 146.285714zM411.062857 676.571429C265.508571 676.571429 146.285714 581.046857 146.285714 459.812571c0-69.997714 39.68-127.451429 105.947429-171.995428l-26.477714-76.690286 92.562285 44.690286c33.133714-6.326857 59.684571-12.8 92.745143-12.8a325.485714 325.485714 0 0 1 24.722286 1.024 183.844571 183.844571 0 0 0-8.155429 53.394286c0 111.286857 99.364571 201.654857 225.133715 201.654857 8.557714 0 17.078857-0.621714 25.490285-1.499429C655.323429 600.283429 541.293714 676.571429 411.062857 676.571429z m-86.016-172.105143c-19.821714 0-39.862857 12.8-39.862857 31.890285 0 19.2 20.041143 31.817143 39.862857 31.817143s33.060571-12.617143 33.060572-31.817143c0-19.090286-13.202286-31.890286-33.060572-31.890285z m185.344 0c-19.858286 0-39.753143 12.8-39.753143 31.890285 0 19.2 19.931429 31.817143 39.753143 31.817143 19.931429 0 33.133714-12.617143 33.133714-31.817143 0-19.090286-13.202286-31.890286-33.133714-31.890285zM877.714286 290.486857c0 102.765714-101.705143 186.587429-215.954286 186.587429-120.978286 0-216.246857-83.821714-216.246857-186.587429 0-102.985143 95.268571-186.660571 216.246857-186.660571 25.307429 0 50.834286 6.436571 76.288 12.909714l69.741714-38.619429-19.126857 64.292572C839.68 181.138286 877.714286 232.484571 877.714286 290.486857z m-286.061715 32.146286c-12.653714 0-25.453714 12.726857-25.453714 25.709714 0 12.836571 12.763429 25.746286 25.453714 25.746286 19.236571 0 31.817143-12.909714 31.817143-25.746286 0-12.982857-12.580571-25.709714-31.817143-25.709714z m139.849143 0c-12.580571 0-25.270857 12.726857-25.270857 25.709714 0 12.836571 12.690286 25.746286 25.270857 25.746286 19.053714 0 31.817143-12.909714 31.817143-25.746286 0-12.982857-12.763429-25.709714-31.817143-25.709714z"  horiz-adv-x="1024" />

    
    <glyph glyph-name="weixin5" unicode="&#58906;" d="M319.302 510.604a33.513 33.513 0 1 1 67.025 0 33.513 33.513 0 1 1-67.025 0zM469.178 511.535a33.513 33.513 0 1 1 67.026 0 33.513 33.513 0 1 1-67.026 0zM552.96 361.658a23.273 23.273 0 1 1 46.545 0 23.273 23.273 0 1 1-46.545 0zM671.185 359.796a23.273 23.273 0 1 1 46.546 0 23.273 23.273 0 1 1-46.546 0zM512 896C229.004 896 0 666.996 0 384s229.004-512 512-512 512 229.004 512 512S794.996 896 512 896z m-87.505-630.225c-26.997 0-48.408 5.585-75.404 11.17l-75.404-37.236 21.411 64.233c-53.993 37.236-85.643 85.643-85.643 145.222 0 102.4 96.814 182.458 215.04 182.458 105.192 0 198.283-64.233 216.901-150.807-6.516 0.93-13.963 0.93-20.48 0.93-102.4 0-182.458-76.334-182.458-170.356 0-15.825 2.793-30.72 6.517-44.684-7.448 0-13.964-0.93-20.48-0.93z m314.647-75.404l15.825-53.993-58.647 32.582c-21.41-5.585-42.822-11.17-64.233-11.17-102.4 0-182.458 69.817-182.458 155.46s80.058 155.463 182.458 155.463c96.815 0 182.458-69.818 182.458-155.462 0-47.476-31.65-90.298-75.403-122.88z"  horiz-adv-x="1024" />

    
    <glyph glyph-name="QQ1" unicode="&#58917;" d="M504.67-36.72c0-49.71-72.67-89.94-162.2-89.94-89.54 0-162.1 40.33-162.1 89.94 0 49.71 72.67 89.83 162.2 89.83 89.63 0 162.2-40.33 162.2-89.94l-0.1 0.11z m175.08 89.84c-89.63 0-162.2-40.33-162.2-89.94 0-49.71 72.66-89.93 162.2-89.93 89.63 0 162.2 40.33 162.2 89.93 0 49.71-72.67 89.94-162.2 89.94z m0 0M869.7 394.88s-12.17 12.18-25.35 24.46V562.47c0 118.88-63.38 228.78-166.39 288.26-103.01 59.49-229.87 59.49-332.88 0-103.01-59.49-166.39-169.38-166.39-288.26v-143.13c-13.28-12.18-25.55-24.46-25.55-24.46-21.56-32.94-73.26-117.08-73.26-196.54 0-79.45 21.76-93.02 29.94-93.63 8.18-0.6 35.53 6.99 68.67 58.19 45.02-149.62 176.87-258.02 332.59-258.02 155.71 0 288.06 108.4 332.88 258.02 33.44-51.51 61.69-59.19 69.17-58.5 7.59 0.7 29.94 14.28 29.94 93.63s-51.6 163.59-73.26 196.13l-0.11 0.72z m0 0M266.62 337.59c-2.59-19.36-3.79-38.83-3.69-58.39 0-181.76 113.29-329.59 252.93-329.59S768.79 96.93 768.79 279.2c0 19.47-1.3 39.03-3.89 58.39H266.62z m157.31 405.05c-36.64 0-67.18-40.73-67.18-91.03 0-50.31 30.04-91.03 67.18-91.03 37.13 0 67.18 40.72 67.18 91.03-0.01 50.3-30.05 91.03-67.18 91.03z m11.17-128.07c-13.57 0-24.45 16.77-24.45 37.33 0 20.66 10.98 37.33 24.45 37.33 13.48 0 24.46-16.77 24.46-37.33-0.1-20.56-11.08-37.33-24.46-37.33z m166 128.07c-36.64 0-67.18-40.73-67.18-91.03 0-50.31 30.04-91.03 67.18-91.03 37.13 0 67.18 40.72 67.18 91.03-0.11 50.3-30.15 91.03-67.18 91.03z m11.28-94.43c0-1-0.8-1.8-1.8-1.8-0.8 0-1.5 0.5-1.7 1.3-2.59 9.58-10.78 16.67-20.66 17.87-9.78-1.4-17.67-8.49-20.16-18.07-0.3-0.7-0.9-1.1-1.6-1.1-1 0-1.8 0.8-1.8 1.8v3.09c0 20.67 10.98 37.33 24.46 37.33s24.46-16.77 24.46-37.33v-3.19l-1.2 0.1z m0 0M247.95 355.85c-6.09-30.54-19.06-167.59-12.97-198.13 6.09-30.54 31.74-25.35 68.57-25.75 36.83-0.4 77.36-10.08 77.96 34.64 0.59 44.81 0.7 133.05 10.88 165.59 10.18 32.64-144.44 23.65-144.44 23.65z m0 0M239.86 290.47l143.34-46.41c0 29.55 3.19 59.09 9.38 88.04 10.08 32.54-144.53 23.76-144.53 23.76-2.2-11.09-5.39-36.64-8.19-65.39z m0 0M512.06 434c111.7 0 202.53 40.63 202.53 65.78 0 19.06-90.53 38.73-202.22 38.73s-202.23-17.67-202.23-38.73c0-23.75 90.53-65.78 202.23-65.78h-0.31z m0 0M514.15 409.45s128.26-1.3 230.68 42.12c102.41 43.42 101.41 48.81 112.69 48.81 11.28 0 24.45-16.07 30.04-45.12 5.59-29.05 12.18-52-12.17-66.28-24.46-14.27-180.67-106.3-357.24-106.3h-8.79c-176.57 0-333.38 92.13-357.23 106.3-23.96 14.17-17.37 36.63-12.18 66.28 5.09 29.64 18.76 45.12 30.04 45.12 11.18 0 10.08-4.89 112.69-48.81 102.51-43.92 230.67-42.12 230.67-42.12h0.8z m0 0"  horiz-adv-x="1024" />

    
    <glyph glyph-name="weixin6" unicode="&#58922;" d="M1023 266.4c0 144.8-144.9 262.7-307.5 262.7-172.3 0-307.9-118-307.9-262.7 0-145 135.7-262.7 307.9-262.7 36.1 0 72.5 9.1 108.7 18.2l99.3-54.3-27.3 90.3c72.7 54.6 126.8 126.9 126.8 208.5zM620.2 306.6c-22.7 0-41 18.4-41 41 0 22.7 18.4 41 41 41 22.7 0 41-18.4 41-41s-18.3-41-41-41z m199.3 0.3c-22.7 0-41 18.4-41 41 0 22.7 18.4 41 41 41 22.7 0 41-18.4 41-41 0-22.7-18.4-41-41-41z m0 0M362.1 800.7C163.1 800.7 0 665 0 492.8c0-99.5 54.2-181.1 144.9-244.5l-36.2-108.9L235.2 202.9c45.3-8.9 81.6-18.2 126.8-18.2 11.4 0 22.7 0.5 33.8 1.4-7.1 24.2-11.2 49.5-11.2 75.9 0 158.2 135.9 286.6 307.8 286.6 11.8 0 23.4-0.8 34.9-2.2C696.1 692.3 540.1 800.7 362.1 800.7zM240.5 552.3c-27.2 0-49.2 22-49.2 49.2 0 27.2 22 49.2 49.2 49.2 27.2 0 49.2-22 49.2-49.2 0-27.2-22-49.2-49.2-49.2z m252.9 0c-27.2 0-49.2 22-49.2 49.2 0 27.2 22 49.2 49.2 49.2s49.2-22 49.2-49.2c0-27.2-22-49.2-49.2-49.2z m0 0"  horiz-adv-x="1024" />

    
    <glyph glyph-name="weixin" unicode="&#58932;" d="M1247.656456 245.191201c0 169.213407-156.970778 313.395706-349.655722 328.367584a19.026761 19.026761 0 0 1-0.077978 6.472218C859.245405 760.161403 665.546741 896 447.284839 896 200.794711 896 0 723.979366 0 512.579575a365.719299 365.719299 0 0 1 167.653836-296.162451l-38.287457-115.018329a19.494632 19.494632 0 0 1 18.480911-25.654936 19.806546 19.806546 0 0 1 8.811574 2.10542l143.558471 71.818225 17.701126-3.587012a607.452737 607.452737 0 0 1 129.444357-16.921341c13.8022 0 27.838335 0.623828 41.640534 1.793506a108.000262 108.000262 0 0 1 15.36177 2.573291 377.416078 377.416078 0 0 1 360.494737-218.339879 526.355067 526.355067 0 0 1 125.62341 20.196439l110.72951-60.511339a19.494632 19.494632 0 0 1 27.994292 22.613774l-28.306206 94.042105A335.307673 335.307673 0 0 1 1247.656456 245.191201z m-762.006181-75.327258a447.596754 447.596754 0 0 0-38.287457-1.637549 575.091648 575.091648 0 0 0-121.568526 16.141555l-24.485258 4.912647a18.792825 18.792825 0 0 1-12.476564-1.637549l-107.61037-53.883163 27.916313 83.982875a19.494632 19.494632 0 0 1-7.329981 22.145902A329.459283 329.459283 0 0 0 38.989264 512.579575C38.989264 702.457292 222.160828 857.010736 447.362818 857.010736c199.001205 0 375.232679-121.100655 411.648652-282.204295-208.748521-2.729248-377.650013-149.406861-377.650014-329.61524a491.654622 491.654622 0 0 1 10.527102-74.859387l-6.238283-0.54585z m581.018016-155.489186a19.494632 19.494632 0 0 1-6.940089-21.132181l18.402933-61.369102-75.639173 41.406598a19.338675 19.338675 0 0 1-9.357423 2.417335 17.935062 17.935062 0 0 1-4.75669-0.623828 516.217859 516.217859 0 0 0-123.51799-20.820268c-189.955695 0-344.43116 130.536057-344.43116 291.015869s154.475465 290.859911 344.43116 290.859911c186.368683 0 343.807332-133.187327 343.807333-290.859911a304.740089 304.740089 0 0 0-141.998901-230.894423zM244.462687 640.152448a58.639853 52.47955 0 1 1 117.279707 0 58.639853 52.47955 0 1 1-117.279707 0ZM543.666301 640.152448a58.639853 52.47955 0 1 1 117.279706 0 58.639853 52.47955 0 1 1-117.279706 0ZM703.600263 339.311285a48.346688 40.78277 0 1 1 96.693375 0 48.346688 40.78277 0 1 1-96.693375 0ZM939.329354 339.311285a48.346688 40.78277 0 1 1 96.693376 0 48.346688 40.78277 0 1 1-96.693376 0Z"  horiz-adv-x="1248" />

    
    <glyph glyph-name="weixin-" unicode="&#59001;" d="M928 558.5c-22.6 53.3-54.9 101.3-96 142.4-41.1 41.1-89 73.4-142.4 96-55.2 23.4-113.9 35.2-174.4 35.2S396.1 820.2 340.8 796.9C287.5 774.3 239.5 742 198.4 700.9c-41.1-41.1-73.4-89-96-142.4-23.4-55.2-35.2-113.9-35.2-174.4S79 265 102.4 209.7c22.6-53.3 54.9-101.3 96-142.4 41.1-41.1 89-73.4 142.4-96 55.2-23.4 113.9-35.2 174.4-35.2s119.1 11.8 174.4 35.2c53.3 22.6 101.3 54.9 142.4 96 41.1 41.1 73.4 89 96 142.4 23.4 55.2 35.2 113.9 35.2 174.4s-11.8 119.1-35.2 174.4zM678.3-2c-51.6-21.8-106.5-32.9-163.1-32.9-56.6 0-111.4 11.1-163.1 32.9-49.9 21.1-94.7 51.3-133.2 89.8-38.5 38.5-68.7 83.3-89.8 133.2-21.8 51.6-32.9 106.5-32.9 163.1s11.1 111.4 32.9 163.1c21.1 49.9 51.3 94.7 89.8 133.2 38.5 38.5 83.3 68.7 133.2 89.8C403.8 792 458.6 803 515.2 803c56.6 0 111.4-11.1 163.1-32.9 49.9-21.1 94.7-51.3 133.2-89.8 38.5-38.5 68.7-83.3 89.8-133.2 21.8-51.6 32.9-106.5 32.9-163.1s-11.1-111.3-33-163c-21.1-49.9-51.3-94.7-89.8-133.2-38.4-38.4-83.2-68.7-133.1-89.8zM622.6 469.7c6.2 0 12.5 0 18.7-1-17.7 80-103 139.3-200.7 139.3-109.1 0-198.6-74.9-198.6-168.4 0-54.1 29.1-99.8 79-134.1l-19.8-59.3 69.6 34.3c24.9-5.2 44.7-10.4 69.6-10.4 6.2 0 12.5 0 19.8 1-4.1 13.5-6.2 27-6.2 41.6 0.1 86.3 74 157 168.6 157z m-107.2 54.1c15.6 0 24.9-10.4 24.9-24.9S529.9 474 515.4 474c-15.6 0-30.1 10.4-30.1 24.9 0 15.5 15.6 24.9 30.1 24.9z m-137.5-46.5c-15.7 0-30.4 10.3-30.4 24.7 0 15.5 15.7 24.7 30.4 24.7s25.1-10.3 25.1-24.7c0.1-14.5-10.4-24.7-25.1-24.7zM803.5 314.8c0 80.1-79 144.5-168.4 144.5-94.6 0-169.5-65.5-169.5-144.5 0-80.1 74.9-144.5 169.5-144.5 19.8 0 39.5 5.2 59.3 10.4l54.1-30.1-14.6 49.9c39.5 30.1 69.6 69.6 69.6 114.3z m-223.6 24.9c-9.3 0-19.8 9.3-19.8 19.8 0 9.3 10.4 19.8 19.8 19.8 14.6 0 24.9-10.4 24.9-19.8 0.1-10.4-9.3-19.8-24.9-19.8z m113.3 4.9c-9.4 0-19.9 9.3-19.9 19.5 0 9.3 10.5 19.5 19.9 19.5 14.7 0 25.1-10.3 25.1-19.5 0-10.3-10.5-19.5-25.1-19.5z"  horiz-adv-x="1024" />

    
    <glyph glyph-name="QQ" unicode="&#58916;" d="M512-128C229.12-128 0 101.12 0 384S229.12 896 512 896s512-229.12 512-512-229.12-512-512-512z m0 981.248C252.672 853.248 42.752 643.328 42.752 384s209.92-469.248 469.248-469.248 469.248 209.92 469.248 469.248S771.328 853.248 512 853.248zM335.36 409.6l-1.28 3.072-0.768 3.84-0.512 2.048v8.448l0.768 3.328 1.28 3.328 0.768 3.84 1.792 4.352 2.048 4.352 3.328 4.352v5.888l0.512 3.84 1.792 4.608 0.768 4.608 1.28 2.048 0.768 2.048 1.792 2.048 1.28 1.792v10.752l1.28 5.632 0.768 6.4 1.28 7.68 2.56 8.192 1.792 4.608 1.792 4.608 1.792 4.608 2.048 4.608 2.048 5.12 2.56 5.12 3.072 5.12 3.328 5.632 1.792 3.072 1.792 2.048 3.84 5.632 3.84 5.632 4.608 5.888 4.608 5.632 5.632 5.632 5.632 5.632 6.4 5.888 4.352 3.84 5.12 3.84 5.12 3.328 5.632 3.328 5.632 3.072 5.888 2.56 6.4 3.072 6.4 2.048 6.4 2.048 7.168 2.56 6.912 1.792 7.168 1.28 7.168 0.768 14.592 2.048 7.68 0.512h23.04l7.68-0.768 7.68-0.768 7.68-0.768 7.68-1.792 7.68-1.792 6.912-1.792 8.192-2.048 7.168-3.072 6.912-2.56 7.168-3.328 6.912-3.072 6.912-3.84 5.888-4.352 5.888-3.84 2.56-2.048 2.56-1.792 5.12-4.352 4.352-4.352 4.352-4.352 4.352-4.608 3.328-4.608 4.352-5.12 2.56-5.12 3.072-4.608 3.328-5.12 2.56-4.608 4.352-9.728 2.048-5.12 1.792-4.608 1.28-5.12 1.792-4.608 0.768-4.352 1.792-4.608 2.048-8.96 1.792-7.68 0.768-7.168 0.768-5.888 1.28-8.96 0.512-1.28 0.768-1.792 3.072-4.608 1.792-3.072 1.792-3.328 2.048-3.84 1.792-3.84 1.28-4.608 1.28-4.608 0.768-4.608 0.512-2.56 0.512-3.072v-2.56l-0.512-2.56v-3.072l-0.768-3.072-1.28-5.888-1.28-3.072-1.28-3.328v-0.768l0.512-1.28 1.792-2.048 6.912-10.24 5.12-7.168 2.56-5.12 3.328-5.632 3.072-5.888 3.328-6.4 3.84-7.168 3.84-8.192 2.048-5.12 2.048-5.12 1.792-5.12 1.792-4.608 1.28-4.608 1.28-4.608 1.792-8.96 1.28-8.96 0.768-8.192v-11.52l-0.512-4.352-1.28-6.912-0.768-6.4-2.048-5.632-0.512-2.56-1.28-2.56-1.28-2.048-1.28-2.048-1.28-1.792-1.792-2.048-1.28-1.28-1.792-1.28-2.048-0.768-1.28-0.768-1.792-0.512h-2.048l-1.28 0.512-2.56 1.28-0.768 0.768-1.28 0.768-1.792 1.28-1.28 1.28-2.048 2.56-2.56 3.328-2.048 3.328-2.048 3.072-2.048 3.328-3.072 5.888-4.096 6.144h-0.768l-1.28-0.768-0.768-1.792-1.28-2.048-2.048-5.888-3.328-8.448-4.352-10.24-3.072-5.632-3.328-5.12-4.352-6.4-4.352-5.632-2.048-3.072-2.56-3.072-5.888-5.888 0.512-0.512 0.768-0.768 3.072-1.792 12.8-5.888 5.632-3.072 5.12-3.072 5.12-3.84 4.608-3.84 2.048-1.792 1.792-2.048 1.792-2.56 1.28-2.56 0.768-1.792 0.768-2.56 0.512-2.56 0.512-2.56-0.512-1.792v-1.792l-0.512-1.792-0.768-1.792-0.512-1.28-0.768-1.28-2.048-3.328-2.048-2.56-1.792-1.792-1.28-1.28-3.328-2.56-4.352-1.536-4.352-2.048-4.608-2.048-4.608-1.792-3.072-0.768-2.048-0.768-5.888-1.28-6.144-1.536-5.888-1.28-6.4-1.28h-6.912l-6.912-0.768h-21.76l-7.68 0.512-7.168 0.512-7.68 1.28-7.68 0.768-8.192 0.768-7.68 2.048-8.192 1.792-7.68 2.048-7.68 2.56-7.68 2.56-3.84 1.28-3.84 1.28-2.048 0.768-2.048 0.512H527.36l-7.68 0.512-3.328 0.512-5.12 0.512-3.072-2.56-4.352-2.56-5.632-3.072-6.4-3.328-3.84-1.792-3.84-1.792-8.96-3.328-4.608-1.28-5.12-1.28-7.168-1.28-4.352-0.512-4.608-0.512-4.608-0.768h-41.472l-12.8 1.792-6.4 0.768-12.032 1.792-6.4 1.28-5.12 1.792-5.888 1.28-4.608 2.048-4.608 1.792-4.608 2.048-3.84 2.048-3.84 3.072-1.28 1.28-1.792 1.792-1.28 1.28-1.28 1.792-0.768 1.792-0.768 1.792-1.28 3.328-0.512 1.792-0.512 2.048v2.048l0.512 2.048v2.048l0.512 1.792v4.352l0.512 2.56 0.768 2.56 0.768 2.56 1.28 3.072 1.28 1.28 0.768 1.28 2.56 3.072 1.792 1.28 1.792 1.28 1.792 1.28 2.56 0.768 2.048 1.28 3.072 1.28 2.56 0.768 3.328 0.768 3.328 0.768 3.072 0.512 4.352 0.512 3.84 0.512 1.28 0.512h0.512l0.512 0.512v0.512l-0.768 1.28-2.048 0.768-5.632 4.608-3.84 3.328-4.352 3.328-4.608 4.352-4.352 5.632-5.632 6.4-2.048 3.072-2.56 3.84-2.048 3.84-2.048 4.352-2.56 4.352-1.792 4.608-2.048 4.608-2.048 5.12-1.792 5.12-1.28 6.4h-0.768l-0.512 0.512h-0.512l-0.768-0.512h-0.512l-0.768-1.28v-1.28l-0.512-0.768-0.768-2.048-2.56-4.352-1.28-3.072-2.048-2.56-2.56-2.56-2.048-3.328-2.56-3.072-3.328-2.56-2.56-2.56-3.328-2.048-3.328-2.048-4.608-2.048-3.84-1.28h-5.632l-0.768 1.792-0.768 0.768-1.792 3.328-0.768 2.048-0.768 2.56-0.768 3.072-0.512 3.072-1.28 6.4-0.512 3.84v12.8l0.512 9.472 0.768 4.608 0.768 5.12 0.768 5.12 1.28 5.12 1.792 5.632 1.792 5.632 2.048 5.888 2.048 5.632 3.072 5.12 2.56 6.4 3.328 5.632 3.84 5.888 4.352 5.632 3.84 5.888 3.328 4.352 4.608 4.608 4.608 5.12 2.048 2.048 2.56 3.072 3.84 3.072 3.84 3.328 6.4 5.888 4.608 3.328 2.56 1.28z"  horiz-adv-x="1024" />

    
    <glyph glyph-name="weixin1" unicode="&#58889;" d="M512 864C246.4 864 32 649.6 32 384s214.4-480 480-480 480 214.4 480 480S777.6 864 512 864zM748.8 166.39999999999998l16-60.8-60.8 35.2c-22.4-6.4-44.8-12.8-67.2-12.8-105.6 0-188.8 80-188.8 176s83.2 176 188.8 176c99.2 0 188.8-80 188.8-176 3.2-54.4-32-102.4-76.8-137.6zM419.2 249.60000000000002c-28.8 0-51.2 6.4-76.8 12.8l-80-44.8 22.4 73.6c-57.6 41.6-89.6 96-89.6 163.2 0 115.2 102.4 204.8 224 204.8 108.8 0 204.8-70.4 224-169.6-6.4 3.2-16 3.2-22.4 3.2-108.8 0-188.8-86.4-188.8-192 0-19.2 3.2-35.2 6.4-51.2h-19.2zM576 384c-9.6 0-22.4-9.6-22.4-25.6 0-9.6 9.6-22.4 22.4-22.4 16 0 28.8 9.6 28.8 22.4 0 16-12.8 25.6-28.8 25.6zM502.4 499.2c16 0 28.8 12.8 28.8 28.8 0 19.2-9.6 28.8-28.8 28.8-16 0-32-9.6-32-28.8 0-16 16-28.8 32-28.8zM345.6 560c-16 0-35.2-9.6-35.2-28.8 0-19.2 16-28.8 35.2-28.8 16 0 28.8 12.8 28.8 28.8s-12.8 28.8-28.8 28.8zM700.8 384c-12.8 0-22.4-9.6-22.4-25.6 0-9.6 9.6-22.4 22.4-22.4 16 0 28.8 9.6 28.8 22.4-3.2 16-12.8 25.6-28.8 25.6z"  horiz-adv-x="1024" />

    
    <glyph glyph-name="weixin2" unicode="&#58893;" d="M329.984 602.697143a40.777143 40.777143 0 1 1 0.073143-81.554286 40.777143 40.777143 0 0 1-0.073143 81.554286z m268.434286-203.483429a33.682286 33.682286 0 1 1-0.036572-67.364571 33.682286 33.682286 0 0 1 0 67.364571z m-70.4 121.856a40.777143 40.777143 0 1 1-0.036572 81.554286 40.777143 40.777143 0 0 1 0.036572-81.554286z m233.801143-121.856a33.682286 33.682286 0 1 1 0-67.364571 33.682286 33.682286 0 0 1 0 67.364571zM793.856 859.428571H230.144C123.611429 859.428571 36.571429 772.388571 36.571429 665.856v-563.712C36.571429-4.388571 123.611429-91.428571 230.144-91.428571h563.712C900.388571-91.428571 987.428571-4.388571 987.428571 102.144V665.856C987.428571 772.388571 900.388571 859.428571 793.856 859.428571z m-367.177143-620.617142a330.971429 330.971429 0 0 0-81.188571 10.020571c-21.504 5.449143-108.288-39.789714-108.288-39.789714s15.469714 79.872 1.353143 90.587428c-58.148571 44.032-94.683429 108.141714-94.683429 179.456 0 132.717714 126.610286 240.274286 282.806857 240.274286 138.569143 0 253.769143-84.736 277.942857-196.534857a313.344 313.344 0 0 1-22.674285 0.950857c-144.274286 0-261.778286-101.595429-261.778286-226.56 0-20.260571 3.401143-39.68 9.106286-58.294857-0.804571 0-1.645714-0.146286-2.56-0.146286z m410.514286-89.526858c-11.702857-8.850286 1.097143-74.715429 1.097143-74.715428s-71.606857 37.339429-89.234286 32.877714a269.970286 269.970286 0 0 0-66.998857-8.301714c-128.914286 0-233.325714 88.722286-233.325714 198.217143 0 109.458286 104.411429 198.144 233.325714 198.144s233.362286-88.685714 233.362286-198.180572c-0.109714-58.953143-30.281143-111.798857-78.226286-148.041143z"  horiz-adv-x="1024" />

    
    <glyph glyph-name="weixin3" unicode="&#58904;" d="M512-112C240-112 16 112 16 384S240 880 512 880s496-224 496-496-224-496-496-496z m0 960C256 848 48 640 48 384S256-80 512-80 976 128 976 384 768 848 512 848zM432 310.4c0 105.6 102.4 192 233.6 192h6.4c-22.4 96-131.2 169.6-256 169.6-140.8 0-256-92.8-256-208 0-67.2 38.4-121.6 102.4-166.4L236.8 224l89.6 41.6c28.8-6.4 60.8-9.6 89.6-9.6h22.4c-3.2 19.2-6.4 35.2-6.4 54.4zM864 300.8c0 99.2-99.2 179.2-208 179.2-115.2 0-208-80-208-179.2 0-99.2 92.8-179.2 208-179.2 25.6 0 48 6.4 73.6 12.8l67.2-38.4-16 60.8c48 38.4 83.2 89.6 83.2 144zM492.8 576c9.6 0 16-3.2 22.4-9.6 6.4-6.4 9.6-12.8 9.6-22.4 0-9.6-3.2-16-9.6-22.4-6.4-6.4-12.8-9.6-22.4-9.6-19.2 0-35.2 12.8-35.2 28.8 3.2 22.4 19.2 35.2 35.2 35.2z m-169.6-60.8c-16 0-32 12.8-35.2 32 3.2 16 19.2 28.8 35.2 28.8 9.6 0 16-3.2 22.4-9.6 6.4-3.2 9.6-12.8 9.6-19.2 0-9.6-3.2-16-9.6-22.4-6.4-6.4-12.8-9.6-22.4-9.6z m249.6-163.2c-12.8 0-22.4 12.8-25.6 25.6 0 12.8 12.8 22.4 25.6 25.6 16 0 28.8-9.6 28.8-25.6s-16-25.6-28.8-25.6z m134.4 0c-12.8 0-22.4 12.8-25.6 25.6 0 12.8 12.8 22.4 25.6 25.6 16 0 28.8-9.6 28.8-25.6-3.2-16-16-25.6-28.8-25.6z"  horiz-adv-x="1024" />

    
    <glyph glyph-name="yiwancheng" unicode="&#58896;" d="M512 896C229.376 896 0 666.624 0 384s229.376-512 512-512 512 229.376 512 512S794.624 896 512 896z m0-998.4C242.688-102.4 25.6 114.688 25.6 384S242.688 870.4 512 870.4 998.4 653.312 998.4 384 781.312-102.4 512-102.4z m0 0M786.432 517.12L472.064 191.488c-7.168-7.168-17.408-12.288-28.672-12.288-11.264 0-21.504 5.12-28.672 12.288l-177.152 184.32c-7.168 7.168-12.288 18.432-12.288 29.696 0 23.552 18.432 41.984 40.96 41.984 11.264 0 21.504-5.12 28.672-12.288l148.48-153.6 285.696 294.912c7.168 8.192 17.408 12.288 28.672 12.288 22.528 0 40.96-19.456 40.96-41.984 0-11.264-4.096-22.528-12.288-29.696z m0 0"  horiz-adv-x="1024" />

    
    <glyph glyph-name="shexiangtou" unicode="&#59000;" d="M544 0h127.936a31.968 31.968 0 1 0 0-64H352.064a31.968 31.968 0 1 0 0 64H480V129.44000000000005C300.576 145.60000000000002 160 296.384 160 480c0 194.4 157.6 352 352 352s352-157.6 352-352c0-183.616-140.576-334.4-320-350.56V0z m-32 192a288 288 0 1 1 0 576 288 288 0 0 1 0-576z m0 96a192 192 0 1 0 0 384 192 192 0 0 0 0-384z m0 64a128 128 0 1 1 0 256 128 128 0 0 1 0-256z"  horiz-adv-x="1024" />

    
    <glyph glyph-name="shoujiqia" unicode="&#58886;" d="M293.075-77.71500000000003l457.025-1.7053e-13c39.682-1.06581e-14 71.599 33.542 71.599 75.028l1.7053e-13 672.189c1.33227e-15 4.147-149.332 153.127-149.332 153.127l-379.294 1.42109e-13c-39.682 1.06581e-14-71.599-33.542-71.599-75.028l-2.27374e-13-750.286c-1.06581e-14-41.483 32.101-75.028 71.599-75.028ZM510.587 22.20399999999995l-114.709 3.55271e-14 4.26326e-14 141.401 114.709-3.55271e-14-4.26326e-14-141.401ZM635.571 22.20399999999995l-104.251 3.55271e-14 4.26326e-14 141.401 104.251-3.55271e-14-4.26326e-14-141.401ZM771.021 73.60699999999997c-8.88178e-15-28.314-18.757-51.404-41.663-51.404l-72.868 1.42109e-14 4.26326e-14 141.401 114.709-3.55271e-14-2.13163e-14-90ZM656.494 472.377l72.868-1.42109e-14c23.087-1.06581e-14 41.663-22.907 41.663-51.404l-2.13163e-14-90-114.709 3.55271e-14 4.26326e-14 141.401ZM531.328 472.377l104.251-3.55271e-14-4.26326e-14-141.401-104.251 3.55271e-14 4.26326e-14 141.401ZM395.875 472.377l114.709-3.55271e-14-4.26326e-14-141.401-114.709 3.55271e-14 4.26326e-14 141.401ZM270.709 420.974c8.88178e-15 28.314 18.575 51.404 41.663 51.404l62.586-1.77636e-14-4.26326e-14-167.018 396.063-1.42109e-13-4.26326e-14-115.787-500.313 1.42109e-13 8.52651e-14 231.402ZM270.709 73.60699999999997l2.13163e-14 90 104.251-3.55271e-14-4.26326e-14-141.401-62.586 1.77636e-14c-22.907 3.55271e-15-41.663 23.087-41.663 51.404Z"  horiz-adv-x="1024" />

    
    <glyph glyph-name="pingmufenbianshuai" unicode="&#58905;" d="M681.472 811.008H339.456c-57.856 0-104.96-49.152-104.96-109.056v-608.768c0-60.416 47.104-109.056 104.96-109.056h342.016c57.856 0 104.96 49.152 104.96 109.056V701.44c0 60.416-47.104 109.568-104.96 109.568z m59.392-733.696c-6.656-28.16-31.232-48.128-59.392-48.128H339.456c-27.648 0-52.736 19.968-59.392 48.128h460.8z m-435.2 651.264l25.6 17.408-10.752 15.872c6.144 2.048 12.8 3.584 19.456 3.584h342.016c33.792 0 60.928-28.672 60.928-63.488v-557.056l-12.288 18.432-25.088-17.408 14.336-20.992H279.04V701.44c0 16.384 6.144 31.744 15.872 43.008l10.752-15.872zM742.4 134.144v-9.216h-13.824l13.824 9.216zM635.633 246.717l25.344 17.362 17.356-25.344-25.344-17.356z m-69.607 101.274l25.344 17.357 17.357-25.344-25.344-17.357zM712.73 188.518l-25.344-17.356-17.362 25.344 25.344 17.356zM600.832 297.354l25.344 17.362 17.357-25.344-25.344-17.357z m-27.105 93.83l-25.344-17.357-17.362 25.344 25.344 17.356zM400.06 644.392l-25.344-17.357-17.356 25.344 25.344 17.357z m34.647-50.74l-25.344-17.356-17.356 25.344 25.344 17.357z m-86.87 126.751l17.361-25.344-25.344-17.367-17.362 25.344z m121.518-177.49l-25.344-17.356-17.357 25.344 25.344 17.357z m69.729-100.991L513.74 424.56l-17.367 25.344 25.344 17.356z m-34.663 50.457l-25.344-17.367-17.362 25.344 25.344 17.357zM369.664 303.616h-35.84v-112.64h124.928v35.84h-89.088z m288.768 296.96h35.84v112.64H569.344v-35.84h89.088z"  horiz-adv-x="1024" />

    
    <glyph glyph-name="yunyingshangguanli" unicode="&#58919;" d="M873.541469 746.542012c-199.277318 199.213324-523.598913 199.213324-722.940224 0a508.560322 508.560322 0 0 1-54.714871-658.114302 31.933006 31.933006 0 1 1 51.963129 37.11652 444.758304 444.758304 0 0 0 47.867512 575.818017c174.383652 174.255664 458.197044 174.255664 632.64469 0a444.758304 444.758304 0 0 0 47.867512-575.754023 31.997 31.997 0 0 1 52.027123-37.180514 508.560322 508.560322 0 0 1-54.714871 658.114302M263.550656 633.656595c-116.853045-116.789051-136.307221-301.795707-46.267663-439.830766a31.997 31.997 0 0 1 53.562979 34.940724 288.228979 288.228979 0 0 0 37.884448 359.646283 287.973003 287.973003 0 0 0 406.681874 0 288.356967 288.356967 0 0 0 37.75646-359.774271 31.869012 31.869012 0 1 1 53.562979-34.940724c90.167547 138.099053 70.713371 323.169703-46.139675 439.958754a352.158985 352.158985 0 0 1-497.041402 0M645.466851 291.800644a31.997 31.997 0 0 1 42.108053 16.31847 190.062182 190.062182 0 0 1-39.996251 212.524076c-72.441209 72.505203-198.701372 72.505203-271.14258 0a190.382152 190.382152 0 0 1-39.868263-212.90804 32.124988 32.124988 0 0 1 42.236041-16.254476 31.933006 31.933006 0 0 1 16.254476 42.108052 126.772115 126.772115 0 0 0 26.621504 141.938693c48.31547 48.31547 132.339593 48.251476 180.719058 0 37.564478-37.564478 48.059494-93.111271 26.685498-141.682717a31.933006 31.933006 0 0 1 16.382464-42.108052M326.456758-64.133987l62.074181 107.509921h232.554198a30.973096 30.973096 0 0 1 12.862794 2.815736l63.738025-110.325657H326.456758zM512.03936 257.115895l86.583883-149.873949H425.391483L512.03936 257.179889z m31.997 72.441209v55.674781a31.869012 31.869012 0 1 1-63.994 0v-55.674781l-236.649814-409.625598a31.997 31.997 0 0 1 27.645408-47.931506h482.002812a31.997 31.997 0 0 1 27.645408 47.931506L544.03636 329.49311z"  horiz-adv-x="1024" />

    
    <glyph glyph-name="yanjizhushou-shangchuan_neicun" unicode="&#58925;" d="M130.742857 739.474286l763.428572 0 0-710.765715-763.428572 0 0 710.765715ZM894.354286 69.851429c0-22.857143-51.2-41.325714-114.285715-41.325715H245.028571c-63.085714 0-114.285714 18.285714-114.285714 41.325715v174.445714c0 22.857143-29.257143 41.325714 33.828572 41.325714h688.457142c63.085714 0 41.325714-18.285714 41.325715-41.325714zM780.068571 1.097143H245.028571a141.897143 141.897143 0 0 0-141.714285 141.714286V625.188571a141.897143 141.897143 0 0 0 141.714285 141.714286h535.04a141.897143 141.897143 0 0 0 141.714286-141.714286v-482.377142a141.897143 141.897143 0 0 0-141.714286-141.714286zM245.028571 712.045714a86.857143 86.857143 0 0 1-86.857142-86.857143v-482.377142a86.857143 86.857143 0 0 1 86.857142-86.857143h535.04a86.857143 86.857143 0 0 1 86.857143 86.857143V625.188571a86.857143 86.857143 0 0 1-86.857143 86.857143zM667.794286 394.24h-310.857143a77.897143 77.897143 0 0 0-75.154286 80.091429V737.645714a27.428571 27.428571 0 1 0 54.857143 0v-263.314285a23.405714 23.405714 0 0 1 20.297143-25.234286h310.857143a23.405714 23.405714 0 0 1 20.48 25.234286V737.645714a27.428571 27.428571 0 1 0 54.857143 0v-263.314285a77.897143 77.897143 0 0 0-75.337143-80.091429zM587.154286 528.64a27.428571 27.428571 0 0 0-27.428572 27.428571v53.577143a27.428571 27.428571 0 1 0 54.857143 0v-53.577143a27.428571 27.428571 0 0 0-27.428571-27.428571z"  horiz-adv-x="1024" />

    
    <glyph glyph-name="shexiangtou1" unicode="&#58960;" d="M79.36 819.2h204.8v-51.2h-204.8zM79.36 819.2h51.2v-204.8h-51.2zM898.56 819.2h51.2v-204.8h-51.2zM79.36 153.6h51.2v-204.8h-51.2zM898.56 153.6h51.2v-204.8h-51.2zM79.36 0h204.8v-51.2h-204.8zM744.96 819.2h204.8v-51.2h-204.8zM744.96 0h204.8v-51.2h-204.8zM770.56 102.4l-120.32 158.72c64 43.52 107.52 117.76 107.52 202.24 0 133.12-110.08 243.2-243.2 243.2s-243.2-110.08-243.2-243.2c0-84.48 40.96-156.16 107.52-202.24L258.56 102.4h512zM296.96 460.8c0 120.32 97.28 217.6 217.6 217.6s217.6-97.28 217.6-217.6-97.28-217.6-217.6-217.6-217.6 97.28-217.6 217.6z m102.4-215.04c35.84-17.92 74.24-28.16 115.2-28.16s79.36 10.24 112.64 28.16h2.56l89.6-117.76h-409.6l89.6 117.76zM514.56 512c28.16 0 51.2-23.04 51.2-51.2s-23.04-51.2-51.2-51.2-51.2 23.04-51.2 51.2 23.04 51.2 51.2 51.2m0 51.2c-56.32 0-102.4-46.08-102.4-102.4s46.08-102.4 102.4-102.4 102.4 46.08 102.4 102.4-46.08 102.4-102.4 102.4z"  horiz-adv-x="1024" />

    
    <glyph glyph-name="rongliang" unicode="&#58915;" d="M1017.72 99.64L893.26 815a95.58 95.58 0 0 1-90.43 81H222.67a95.23 95.23 0 0 1-90.89-83.17L7.71 99.6A150.58 150.58 0 0 1 0 60.47V47a147 147 0 0 1 147.07-140.14h731.28c81.19 0 147.25 66.06 147.25 147.25 0 14.3-2.6 29.19-7.88 45.53zM878.36 201.37H147.08c-15.15 0-30.49-2.7-46.85-8.25L209.44 820.95H816l109.21-627.83c-16.36 5.55-31.7 8.25-46.85 8.25z m72.11-147.25A72.21 72.21 0 0 0 878.35-18H147.07a72.13 72.13 0 0 0 0 144.26h731.28a72.21 72.21 0 0 0 72.12-72.14zM623.39 530.43a110.69 110.69 0 0 1-221.38 0 74.14 74.14 0 0 1-50.62-126.09q1.29-1.31 2.63-2.54a73.61 73.61 0 0 1 45.35-19.45q1.82-0.12 3.66-0.15h219.38a74.14 74.14 0 0 1 1 148.24z m237.71-444.1a37.74 37.74 0 0 1-19.27 5.35 37.57 37.57 0 0 1 0-75.13 37.55 37.55 0 0 1 37.36 33.87 36.63 36.63 0 0 1 0.18 3.69 37.44 37.44 0 0 1-18.25 32.22z"  horiz-adv-x="1025" />

    
    <glyph glyph-name="icon-" unicode="&#58901;" d="M512 209.2c60.2 0 116.8 23.4 159.3 66 42.6 42.6 66 99.2 66 159.3s-23.4 116.8-66 159.3c-42.6 42.6-99.2 66-159.3 66s-116.8-23.4-159.3-66c-42.6-42.6-66-99.2-66-159.3s23.4-116.8 66-159.3c42.5-42.5 99.1-66 159.3-66z m0 430.7c113.2 0 205.3-92.1 205.3-205.3S625.2 229.2 512 229.2s-205.4 92.1-205.4 205.3S398.8 639.9 512 639.9zM512 373.8c52.2 0 94.6 42.4 94.6 94.6S564.2 563 512 563s-94.6-42.4-94.6-94.6 42.4-94.6 94.6-94.6z m0 169.2c41.1 0 74.6-33.5 74.6-74.6s-33.5-74.6-74.6-74.6-74.6 33.5-74.6 74.6S470.9 543 512 543zM658.4 217.6c-1.4 5.3-6.9 8.5-12.3 7-5.3-1.4-8.5-6.9-7-12.3l11.8-43.6c2.9-10.9 0.8-22.8-5.6-31.2-4.7-6.1-11-9.5-17.8-9.5H396.4c-6.8 0-13.1 3.4-17.8 9.5-6.4 8.4-8.6 20.3-5.6 31.2l11.8 43.6c1.4 5.3-1.7 10.8-7 12.3-5.3 1.4-10.8-1.7-12.3-7L353.8 174c-4.6-17-1.2-35.2 9-48.6 8.4-11 20.7-17.4 33.6-17.4h231.1c12.9 0 25.2 6.3 33.6 17.4 10.3 13.4 13.6 31.6 9 48.6l-11.7 43.6zM512 607.6m-23.4 0a23.4 23.4 0 1 1 46.8 0 23.4 23.4 0 1 1-46.8 0Z"  horiz-adv-x="1024" />

    
    <glyph glyph-name="shexiangtou2" unicode="&#58902;" d="M517.1 71c-201.4 0-365.3 163.9-365.3 365.3S315.7 801.6 517.1 801.6s365.3-163.9 365.3-365.3S718.6 71 517.1 71z m0 694.1c-181.3 0-328.8-147.5-328.8-328.8s147.5-328.8 328.8-328.8S845.9 255 845.9 436.3 698.4 765.1 517.1 765.1zM517.1 271.9c-90.6 0-164.4 73.7-164.4 164.4s73.7 164.4 164.4 164.4S681.5 527 681.5 436.3s-73.7-164.4-164.4-164.4z m0 292.3c-70.5 0-127.9-57.4-127.9-127.9s57.4-127.9 127.9-127.9S645 365.8 645 436.3s-57.4 127.9-127.9 127.9zM446.4 433.3c-1.9 0-3.9 0.3-5.8 0.9-9.6 3.2-14.7 13.5-11.5 23.1 0.9 2.6 9 26.2 24.2 41.4 14.7 14.7 36.9 23.1 39.3 24 9.5 3.5 20-1.4 23.4-10.8 3.5-9.5-1.4-20-10.8-23.4-4.7-1.8-18.5-7.9-26.1-15.6-7.7-7.7-13.7-22.2-15.4-27.1-2.6-7.7-9.7-12.5-17.3-12.5zM597.5 776.5l-33.8 13.8c2.4 6 3.7 12.4 3.7 19 0 27.7-22.5 50.2-50.2 50.2S467 837 467 809.3c0-5.6 0.9-11.1 2.7-16.2l-34.7-12c-3.1 9-4.7 18.5-4.7 28.1C430.3 857 469.2 896 517.1 896s86.8-38.9 86.8-86.8c0-11.3-2.2-22.3-6.4-32.7zM517.1-128c-67.2 0-187.9 23.3-193 24.3l-24 4.7 107.8 206.6h211.7l107.6-206.2-23.6-5c-4.8-1-116.9-24.4-186.5-24.4z m-161.8 55.7c38.9-6.8 115.5-19.2 161.9-19.2 47.3 0 118.5 12.1 155.1 18.9L597.4 71H430l-74.7-143.3z"  horiz-adv-x="1024" />

    
    <glyph glyph-name="xingzhuang" unicode="&#58892;" d="M719.768116 658.550725H304.231884a59.362319 59.362319 0 0 1-59.362319-59.362319v-415.536232a59.362319 59.362319 0 0 1 59.362319-59.362319h415.536232a59.362319 59.362319 0 0 1 59.362319 59.362319V599.188406a59.362319 59.362319 0 0 1-59.362319 59.362319z m0-474.898551H304.231884V599.188406h415.536232v-415.536232z m267.130435 237.449275a29.681159 29.681159 0 0 1 0 59.362319h-103.884058v89.043478h103.884058a29.681159 29.681159 0 0 1 0 59.362319h-103.884058v50.265044A78.313739 78.313739 0 0 1 801.391304 762.434783H764.289855V866.318841a29.681159 29.681159 0 0 1-59.362319 0v-103.884058h-89.043478V866.318841a29.681159 29.681159 0 0 1-59.362319 0v-103.884058h-89.043478V866.318841a29.681159 29.681159 0 0 1-59.362319 0v-103.884058h-89.043478V866.318841a29.681159 29.681159 0 0 1-59.362319 0v-103.884058h-37.101449C173.516058 762.434783 126.144928 728.301449 126.144928 679.134609V628.869565H37.101449a29.681159 29.681159 0 0 1 0-59.362319h89.043479v-89.043478H37.101449a29.681159 29.681159 0 0 1 0-59.362319h89.043479v-89.043478H37.101449a29.681159 29.681159 0 0 1 0-59.362319h89.043479v-89.043478H37.101449a29.681159 29.681159 0 0 1 0-59.362319h89.043479v-23.937855A100.826899 100.826899 0 0 1 222.608696 5.565217H259.710145v-103.884058a29.681159 29.681159 0 0 1 59.362319 0v103.884058h89.043478v-103.884058a29.681159 29.681159 0 0 1 59.362319 0v103.884058h89.043478v-103.884058a29.681159 29.681159 0 0 1 59.362319 0v103.884058h89.043478v-103.884058a29.681159 29.681159 0 0 1 59.362319 0v103.884058h37.101449c49.092638 0 81.623188 45.694145 81.623189 94.786783V124.289855h103.884058a29.681159 29.681159 0 0 1 0 59.362319h-103.884058v89.043478h103.884058a29.681159 29.681159 0 0 1 0 59.362319h-103.884058v89.043478h103.884058zM823.652174 94.608696a29.681159 29.681159 0 0 0-29.68116-29.68116H215.188406a29.681159 29.681159 0 0 0-29.68116 29.68116V673.391304a29.681159 29.681159 0 0 0 29.68116 29.68116h578.782608a29.681159 29.681159 0 0 0 29.68116-29.68116v-578.782608z"  horiz-adv-x="1024" />

    
    <glyph glyph-name="gaodu" unicode="&#58890;" d="M819.198-14.218H204.799c-50.267 0-91.022 40.75-91.022 91.02V691.178c0 50.29 40.755 91.045 91.022 91.045h614.398c50.27 0 91.02-40.755 91.02-91.045v-614.376c0.001-50.27-40.749-91.02-91.019-91.02z m22.755 682.664c0 25.122-20.385 45.51-45.51 45.51H227.554c-25.122 0-45.51-20.387-45.51-45.51v-568.889c0-25.125 20.387-45.535 45.51-45.535h568.889c25.125 0 45.51 20.39 45.51 45.535V668.446zM603.268 495.048l-57.14 57.115v-335.802l55.505 55.5c13.335 13.31 34.93 13.335 48.265 0 13.33-13.335 13.33-34.95 0-48.29l-105.77-105.765c-1.615-3.415-3.525-6.78-6.37-9.625-7.1-7.08-16.475-10.1-25.76-9.67-9.262-0.46-18.66 2.59-25.76 9.69-2.842 2.85-4.8 6.15-6.347 9.58l-105.79 105.79c-13.335 13.34-13.335 34.955 0 48.29 13.332 13.31 34.927 13.335 48.262 0l55.502-55.5V552.163l-57.117-57.115c-13.335-13.357-34.952-13.335-48.287 0s-13.335 34.93 0 48.265l115.395 115.37c13.332 13.335 34.927 13.357 48.262 0l115.395-115.37c13.335-13.335 13.335-34.952 0-48.265-13.315-13.334-34.93-13.334-48.245 0z"  horiz-adv-x="1024" />

    
    <glyph glyph-name="xinyongshoujika" unicode="&#58887;" d="M145.9-63.6V831.6h491.5l226.7-231.8 14-14.5v-648.8H145.9z m84.1 79.8h568.4V560.4l-193.9 187H230v-731.2z m161.6 682.5h79.9v-199.8h-79.9V698.7z m111.9 0h79.9v-199.8h-79.9V698.7z m-223.8 0h79.9v-199.8h-79.9V698.7z"  horiz-adv-x="1024" />

    
    <glyph glyph-name="upload-fill" unicode="&#58942;" d="M220.672 36.86400000000003c-63.488 0-99.84 36.352-99.84 99.84V311.29600000000005c0 10.752 8.704 19.456 19.456 19.456 29.184 0 58.88 4.096 58.88-23.552v-165.888c0-13.824 11.264-24.576 24.576-24.576h576.512c13.824 0 25.088 11.264 25.088 25.088V311.808c0 10.752 8.704 19.456 19.456 19.456 29.184 0 58.88 4.096 58.88-23.552v-175.104c0-63.488-31.232-94.72-94.72-94.72l-588.288-1.024zM550.912 695.808v-438.272c0-21.504-17.408-23.552-38.912-23.552-21.504 0-38.912 2.048-38.912 23.552V695.808c0 21.504 17.408 38.912 38.912 38.912s38.912-17.408 38.912-38.912zM509.952 748.544c10.24 0 20.48-4.096 27.648-11.264l187.904-187.392c14.848-14.848 8.192-34.304-7.168-49.664s-34.816-18.944-48.128-5.632L509.952 654.848 358.4 503.296c-17.92-17.92-37.376-17.92-55.296 0s-18.944 36.352 0 55.296l179.2 179.2c7.168 7.168 17.408 11.264 27.648 11.264v-0.512z"  horiz-adv-x="1024" />

    
    <glyph glyph-name="yunyingshang" unicode="&#59153;" d="M512 745.6c25.6 0 51.2 16 60.8 41.6 9.6 0 22.4-3.2 32-6.4 192-41.6 336-214.4 336-419.2 0-44.8-6.4-89.6-19.2-131.2l28.8-9.6c3.2 0 6.4-3.2 6.4-6.4 16 44.8 22.4 96 22.4 147.2 0 224-160 412.8-371.2 457.6-9.6 3.2-22.4 3.2-32 6.4-6.4 28.8-32 48-60.8 48-28.8 0-54.4-22.4-60.8-48-6.4-6.4-6.4-9.6-6.4-16 0-9.6 3.2-16 3.2-22.4 9.6-25.6 35.2-41.6 60.8-41.6zM172.8 99.2c16 19.2 19.2 48 6.4 70.4-12.8 22.4-38.4 35.2-64 32-3.2 9.6-6.4 19.2-9.6 32-12.8 41.6-19.2 86.4-19.2 131.2 0 204.8 144 377.6 336 419.2-3.2 6.4-6.4 16-6.4 25.6v9.6C204.8 774.4 44.8 585.6 44.8 361.6c0-51.2 9.6-99.2 22.4-147.2 3.2-9.6 6.4-22.4 12.8-32-22.4-19.2-25.6-51.2-12.8-76.8 16-25.6 44.8-38.4 73.6-28.8 3.2 0 9.6 3.2 12.8 6.4 9.6 3.2 16 9.6 19.2 16zM931.2 192c-6.4 3.2-16 6.4-22.4 6.4-25.6 3.2-51.2-6.4-64-32-12.8-22.4-9.6-51.2 6.4-70.4-6.4-9.6-12.8-16-22.4-25.6-76.8-86.4-192-140.8-316.8-140.8s-236.8 54.4-316.8 140.8c-6.4-6.4-12.8-12.8-22.4-19.2-3.2-3.2-6.4-3.2-9.6-3.2 86.4-96 211.2-156.8 348.8-156.8s262.4 60.8 348.8 156.8c6.4 9.6 16 16 22.4 25.6 28.8-9.6 57.6 3.2 73.6 28.8 16 25.6 9.6 57.6-12.8 76.8-3.2 9.6-6.4 12.8-12.8 12.8z m-480 188.8c-9.6 12.8-16 28.8-16 44.8 0 16 6.4 32 16 44.8l-32 22.4c-12.8-19.2-22.4-41.6-22.4-67.2s9.6-48 22.4-67.2l32 22.4zM345.6 544l-32 22.4c-28.8-38.4-44.8-89.6-44.8-140.8 0-51.2 16-102.4 44.8-140.8l32 22.4c-25.6 32-38.4 73.6-38.4 118.4 0 44.8 12.8 86.4 38.4 118.4z m51.2-201.6c-16 22.4-25.6 51.2-25.6 83.2s9.6 57.6 25.6 83.2l-32 22.4c-22.4-28.8-32-64-32-105.6 0-38.4 12.8-73.6 32-105.6l32 22.4z m358.4 83.2c0 51.2-16 102.4-44.8 140.8l-32-22.4c25.6-32 38.4-73.6 38.4-118.4 0-44.8-12.8-86.4-38.4-118.4l32-22.4c28.8 38.4 44.8 89.6 44.8 140.8z m-128 0c0 25.6-9.6 48-22.4 67.2l-32-22.4c9.6-12.8 16-28.8 16-44.8 0-16-6.4-32-16-44.8l32-22.4c12.8 19.2 22.4 41.6 22.4 67.2z m64 0c0 38.4-12.8 73.6-32 105.6l-32-22.4c16-22.4 25.6-51.2 25.6-83.2s-9.6-57.6-25.6-83.2l32-22.4c19.2 32 32 67.2 32 105.6zM448 182.4h128c6.4 0 12.8 3.2 16 6.4 3.2 3.2 6.4 9.6 3.2 16l-32 160c-3.2 9.6-9.6 16-19.2 16h-6.4c16 9.6 25.6 25.6 25.6 44.8 0 28.8-22.4 51.2-51.2 51.2-28.8 0-51.2-22.4-51.2-51.2 0-19.2 9.6-35.2 25.6-44.8H480c-9.6 0-16-6.4-19.2-16l-32-160c0-6.4 0-12.8 3.2-16 3.2-3.2 9.6-6.4 16-6.4z m64 256c6.4 0 12.8-6.4 12.8-12.8s-6.4-12.8-12.8-12.8-12.8 6.4-12.8 12.8 6.4 12.8 12.8 12.8z m-16-96h32l12.8-60.8h-57.6l12.8 60.8z m-19.2-96h70.4l6.4-25.6h-80l3.2 25.6z"  horiz-adv-x="1024" />

    
    <glyph glyph-name="dianliang" unicode="&#60324;" d="M731.428571 749.714286a182.857143 182.857143 0 0 0 182.857143-182.857143v-512A182.857143 182.857143 0 0 0 731.428571-128H292.571429a182.857143 182.857143 0 0 0-182.857143 182.857143v512A182.857143 182.857143 0 0 0 292.571429 749.714286h438.857142z m0-73.142857H292.571429a109.714286 109.714286 0 0 1-109.714286-109.714286v-512A109.714286 109.714286 0 0 1 292.571429-54.857143h438.857142a109.714286 109.714286 0 0 1 109.714286 109.714286v512A109.714286 109.714286 0 0 1 731.428571 676.571429zM528.384 562.980571a36.571429 36.571429 0 0 0 18.724571-42.934857l-2.413714-6.144L461.531429 347.428571H621.714286a36.571429 36.571429 0 0 0 34.962285-47.250285l-2.194285-5.705143-109.714286-219.428572a36.571429 36.571429 0 0 0-67.876571 26.624l2.413714 6.144L562.468571 274.285714H402.285714a36.571429 36.571429 0 0 0-34.962285 47.250286l2.194285 5.705143 109.714286 219.428571a36.571429 36.571429 0 0 0 49.152 16.310857zM658.285714 896a36.571429 36.571429 0 1 0 0-73.142857H365.714286a36.571429 36.571429 0 0 0 0 73.142857h292.571428z"  horiz-adv-x="1024" />

    
    <glyph glyph-name="daping" unicode="&#58903;" d="M900.608 73.728H121.344c-56.832 0-105.984 49.664-105.984 106.496v517.12C15.36 754.176 65.024 803.84 121.344 803.84h779.264c56.832 0 106.496-49.664 106.496-106.496v-517.12c0-64-49.664-106.496-106.496-106.496zM121.344 732.16c-20.992 0-35.328-14.336-35.328-35.328v-517.12c0-20.992 14.336-35.328 35.328-35.328h779.264c20.992 0 35.328 14.336 35.328 35.328v517.12c0 20.992-14.336 35.328-35.328 35.328H121.344z m850.432-778.752H50.688c-21.504 0-35.328 14.336-35.328 35.328s14.336 35.328 35.328 35.328h920.576c20.992 0 35.328-14.336 35.328-35.328s-13.824-35.328-34.816-35.328z m0 0M171.008 498.688c-21.504 0-35.328 14.336-35.328 35.328V640c0 21.504 14.336 35.328 35.328 35.328h113.152c14.336 0 35.328-14.336 35.328-35.328s-20.992-35.328-35.328-35.328H206.336v-77.824c0-14.336-13.824-28.16-35.328-28.16zM284.672 194.048H171.008c-21.504 0-35.328 14.336-35.328 35.328v113.152c0 14.336 14.336 35.328 35.328 35.328s35.328-14.336 35.328-35.328v-77.824h77.824c21.504 0 35.328-14.336 35.328-35.328 0.512-20.992-20.992-35.328-34.816-35.328zM850.944 498.688c-21.504 0-35.328 14.336-35.328 35.328V604.672h-77.824c-20.992 0-35.328 14.336-35.328 35.328s14.336 35.328 35.328 35.328h113.152c20.992 0 35.328-14.336 35.328-35.328v-113.152c0-14.336-13.824-28.16-35.328-28.16zM850.944 194.048h-113.152c-20.992 0-35.328 14.336-35.328 35.328 0 20.992 14.336 35.328 35.328 35.328h77.824v77.824c0 21.504 14.336 35.328 35.328 35.328 20.992 0 35.328-14.336 35.328-35.328v-113.152c0-20.992-13.824-35.328-35.328-35.328z"  horiz-adv-x="1024" />

    
    <glyph glyph-name="iconfontgantanhao" unicode="&#58888;" d="M512 896C229.6832 896 0 666.3424 0 384s229.6832-512 512-512 512 229.6832 512 512S794.3168 896 512 896zM512-100.3264c-267.0592 0-484.3264 217.2928-484.3264 484.3264S244.9408 868.3264 512 868.3264 996.3264 651.0592 996.3264 384 779.0592-100.3264 512-100.3264zM512 262.9376c-14.2336 0-25.7536 11.5456-25.7536 25.7536l0 322.816c0 14.2336 11.52 25.7536 25.7536 25.7536 14.2336 0 25.7536-11.5456 25.7536-25.7536l0-322.816C537.7792 274.4832 526.2592 262.9376 512 262.9376zM512 165.1712m-34.4576 0a1.346 1.346 0 1 0 68.9152 0 1.346 1.346 0 1 0-68.9152 0Z"  horiz-adv-x="1024" />

    
    <glyph glyph-name="dingdanyiwancheng" unicode="&#58939;" d="M959.018 687.842c0.23 2.721 0.34 5.45 0.34 8.172 0 74.93-60.96 135.89-135.89 135.89-1.54 0-3.036-0.06-6.522-0.213l-611.757 0.043c-1.768 0.085-3.563 0.17-5.424 0.17-74.812 0-135.67-60.84-135.67-135.712l0.188-10.952h-0.306l0.391-594.972-0.162-20.382c0-74.03 60.22-134.25 134.24-134.25 1.668 0 7.007 0.239 7.1 0.239l608.934-0.085c2.985-0.357 6.216-0.468 9.55-0.468 35.815 0 69.514 13.954 94.879 39.302 25.373 25.34 39.344 58.987 39.344 94.794l-0.145 12.015h0.918l-0.008 606.41z m-757.655-693.82l-2.585 0.203c-42.524 0-76.146 34.863-76.537 79.309V563.329H900.79l0.46-485.186-0.885-2.865c-0.535-1.837-0.8-3.58-0.8-5.17 0-40.382-31.555-73.766-71.852-76.002l-10.816-0.621v0.527l-615.533 0.01zM900.78 621.576H122.3l-0.375 65.934 0.85 2.924c0.52 1.82 0.782 3.63 0.782 5.247 0 42.236 34.727 76.665 78.179 76.809l0.45 0.068 618.177-0.018 2.662-0.203c42.329 0 76.767-34.439 76.767-76.768 0-1.326 0.196-2.687 0.655-4.532l0.332-0.884v-68.577zM697.67 424.565c-7.882 0-15.314-3.078-20.918-8.682l-223.43-223.439L346.599 299.16c-5.544 5.603-12.95 8.69-20.842 8.69s-15.323-3.078-20.918-8.665c-5.578-5.518-8.674-12.9-8.7-20.79-0.017-7.908 3.07-15.357 8.69-20.994l127.55-127.558c5.57-5.56 13.01-8.622 20.943-8.622 7.925 0 15.364 3.06 20.934 8.63l244.247 244.247c5.578 5.511 8.674 12.883 8.7 20.783 0.017 7.942-3.079 15.408-8.682 20.986-5.552 5.612-12.958 8.698-20.85 8.698z"  horiz-adv-x="1024" />

    
    <glyph glyph-name="fuwuzhongxin1" unicode="&#59147;" d="M511.488 13.312c-6.144 0-12.288 3.072-16.384 7.68l-343.04 365.056c-79.36 84.48-78.848 221.696 0.512 306.176 37.888 40.448 88.576 62.464 142.336 62.464S398.848 732.16 437.248 691.712L512 612.352l74.752 79.36c37.888 40.448 88.576 62.464 142.336 62.464s104.448-22.528 142.848-62.976c78.848-84.48 78.848-221.184 0-305.664l-87.552-93.184-0.512-0.512c-1.536-2.048-2.56-3.584-3.584-4.608l-251.392-266.24-2.048-2.048-0.512-0.512c-1.024-0.512-1.024-1.024-1.536-1.024l-0.512-0.512c-1.024-0.512-1.024-0.512-1.536-1.024l-0.512-0.512c-1.024-0.512-1.024-0.512-1.536-0.512 0 0-2.048-0.512-2.048-1.024h-1.024c-1.024 0-1.024-0.512-1.536-0.512 0 0-2.048-0.512-2.56-0.512h-2.048v0.512zM303.104 691.2c-45.568 0-88.064-20.992-117.248-57.856-47.104-59.904-47.104-146.944 0-206.336l90.624-97.28 0.512-0.512c0.512-0.512 1.536-1.024 2.048-2.048l232.96-247.808 233.984 247.808 92.16 98.304c58.368 61.952 58.368 164.352 0 227.84-28.16 30.72-66.56 47.616-107.52 47.616s-79.872-16.896-109.056-47.616L409.088 427.52c-4.608-5.12-10.752-7.68-17.408-7.68-6.656 0-12.8 2.56-17.408 7.68-10.24 10.752-10.24 28.672 0 39.936l101.376 107.008-73.216 77.824C374.272 677.376 338.944 691.2 303.104 691.2z"  horiz-adv-x="1024" />

    
    <glyph glyph-name="wode" unicode="&#58923;" d="M513.1 300.6c165.5 0 299.6 133.1 299.6 297.3 0 164.2-134.2 297.3-299.6 297.3S213.5 762.1 213.5 597.9C213.5 433.7 347.6 300.6 513.1 300.6zM513.1 846.2c137.5 0 249.3-111.4 249.3-248.3 0-136.9-111.9-248.3-249.3-248.3S263.7 461 263.7 597.9C263.7 734.8 375.6 846.2 513.1 846.2zM513.1 278.6c-219.3 0-397.7-181.9-397.7-405.2l51.1-0.2c0 193.9 155.5 352.1 346.6 352.1S859.7 79 859.7-126l51.1 0C910.8 105 732.4 278.6 513.1 278.6zM633.6 451.7l-15.2 20c-63.7-46.2-154.6-46.4-218.5-0.5l-15.2-20.1c36.3-26.1 79.2-39.8 124.1-39.8C554.1 411.3 597.2 425.2 633.6 451.7z"  horiz-adv-x="1024" />

    
    <glyph glyph-name="logo" unicode="&#58885;" d="M323.160648 333.400648m40.96 70.944801l56.32 97.549102q40.96 70.944801 111.904801 29.984801l97.549102-56.32q70.944801-40.96 29.984801-111.904801l-56.32-97.549102q-40.96-70.944801-111.904801-29.984801l-97.549102 56.32q-70.944801 40.96-29.984801 111.904801ZM569.664 729.056a102.4 102.4 0 0 1 37.44-139.872L1024 348.544V732.16A163.84 163.84 0 0 1 860.16 896h-194.144l-96.352-166.944zM1024 35.84v193.856l-166.08 95.904a102.4 102.4 0 0 1-139.904-37.472L477.792-128H860.16A163.84 163.84 0 0 1 1024 35.84zM417.472 177.856L0 418.88v-383.04A163.84 163.84 0 0 1 163.84-128h195.264l95.84 165.952a102.4 102.4 0 0 1-37.472 139.904zM0 732.16v-195.456l165.888-95.808a102.4 102.4 0 0 1 139.872 37.504L546.88 896H163.84A163.84 163.84 0 0 1 0 732.16z"  horiz-adv-x="1024" />

    
    <glyph glyph-name="fmashangpin" unicode="&#58965;" d="M896.064 812l-768 0c-70.72 0-128-57.344-128-128l0-768c0-70.656 57.28-128 128-128l768 0c70.656 0 128 57.344 128 128L1024.064 684C1024.064 754.656 966.72 812 896.064 812zM705.984 502.816 429.568 502.816l0-157.888 239.232 0 0-60.096L429.568 284.832l0-231.616L362.112 53.216 362.112 562.976l343.872 0L705.984 502.816z"  horiz-adv-x="1025" />

    
    <glyph glyph-name="shezhi" unicode="&#58912;" d="M995.60064 476.49664l-152.71424 28.13696c-14.82112 2.72128-20.04096 15.15648-11.63392 27.64288l87.61984 129.88416c8.41856 12.4864 6.58944 31.41376-4.04992 42.07104l-84.04608 84.01152c-10.64576 10.65728-29.57952 12.48-42.07104 4.05632l-129.88416-87.61344c-12.49152-8.42496-24.94336-3.1808-27.66464 11.61088L603.04128 869.07392C600.30336 883.87712 585.74848 896 570.6944 896l-118.87488 0c-15.05408 0-29.61408-12.12288-32.33408-26.92608l-28.11392-152.75392c-2.73792-14.79808-15.18464-20.04736-27.67616-11.6224L233.83424 792.29824c-12.47488 8.42496-31.40352 6.60096-42.05952-4.05632l-84.0512-84.02944c-10.65728-10.6624-12.47488-29.60768-4.04992-42.05952l87.5968-129.87776c8.41344-12.4864 3.19872-24.9216-11.6288-27.64288L26.92096 476.49664C12.09984 473.77024 0 459.21024 0 444.14592l0-118.8352c0-15.05408 12.09984-29.61408 26.92096-32.352l152.77696-28.11392c14.79296-2.73792 20.02432-15.18464 11.60576-27.65952L103.67232 107.28576c-8.42496-12.49152-6.60608-31.40864 4.04992-42.06592l84.0512-84.02944c10.65728-10.6624 29.58464-12.4864 42.05952-4.04992l129.86112 87.57376c12.49152 8.4416 24.93824 3.1808 27.67616-11.59424l28.11392-152.73088c2.72128-14.8096 17.28128-26.91456 32.33408-26.91456l118.87488 0c15.05408 0 29.60768 12.10496 32.3456 26.91456l28.11392 152.7424c2.72128 14.79808 15.17312 20.04736 27.66464 11.58912l129.88416-87.57888c12.49152-8.4352 31.42528-6.61248 42.07104 4.04992l84.02944 84.0064c10.65728 10.6688 12.47488 29.58464 4.04992 42.07104l-87.62496 129.91744c-8.42496 12.47488-3.19232 24.9216 11.59936 27.65952l152.77056 28.11392c14.82112 2.73792 26.92608 17.29792 26.92608 32.352l0 118.8352C1022.52672 459.21024 1010.42176 473.77024 995.60064 476.49664zM511.18976 199.56224c-102.02496 0-184.7424 82.71104-184.7424 184.74752 0 102.03136 82.71616 184.7424 184.7424 184.7424 102.03648 0 184.74752-82.71104 184.74752-184.7424C695.93728 282.27328 613.22624 199.56224 511.18976 199.56224z"  horiz-adv-x="1024" />

    
    <glyph glyph-name="search" unicode="&#58894;" d="M437.178 817.598c-206.159 0-373.288-167.129-373.288-373.286 0-206.165 167.129-373.293 373.288-373.293 206.163 0 373.292 167.129 373.292 373.293 0.001 206.157-167.128 373.286-373.292 373.286v0zM437.178 144.731c-165.188 0-299.575 134.391-299.575 299.581 0 165.181 134.386 299.574 299.575 299.574 165.187 0 299.573-134.392 299.573-299.574 0.001-165.189-134.385-299.581-299.573-299.581v0zM949.208-0.895l-165.204 165.237c-15.488-19.161-32.703-36.783-51.107-53.136l164.197-164.22c7.198-7.198 16.624-10.794 26.057-10.794 9.432 0 18.859 3.596 26.063 10.794 14.39 14.395 14.39 37.723-0.006 52.119v0zM949.208-0.895z"  horiz-adv-x="1025" />

    
    <glyph glyph-name="shop2" unicode="&#58933;" d="M774.360871 817.042717 246.68382 817.042717 63.367725 553.107489c0 0 0-90.524736 0-105.564267 0-28.135804 53.80851-87.87028 70.451562-108.202351l0-296.829406c0-58.311057 44.291762-103.832833 105.58064-103.832833l552.640606 0c61.288878 0 95.962585 45.520753 95.962585 103.832833L888.003118 346.235908c18.844184 21.757536 70.582545 66.210981 70.582545 101.307314 0 28.89612 0 105.564267 0 105.564267L774.360871 817.042717zM281.844621 754.635365l458.131115 0 119.827109-179.965791L161.986813 574.669574 281.844621 754.635365zM831.602573 56.368054c0-29.173436-32.765241-55.397704-63.424518-55.397704L253.645372 0.97035c-30.661324 0-63.425541 26.224268-63.425541 55.397704l0 83.046415 641.382743 0L831.602573 56.368054zM831.602573 194.776358 190.219831 194.776358 190.219831 318.554452c0 0 32.69975 0 35.226293 0 28.879748 0 67.99051 22.307052 87.352487 60.980863 21.756513-37.606503 47.917336-63.959707 86.704734-63.959707 40.98853 0 86.122473 23.924899 101.177354 58.472739 15.087627-33.703613 58.180074-55.492872 98.328469-55.492872 39.824007 0 82.173534 25.706475 103.022375 64.962547 24.410969-39.612183 44.163849-67.942415 95.090728-67.942415 0.550539 0 34.481326 9.908674 34.481326 9.908674L831.603597 194.776358zM880.943328 450.067718c-0.38681-36.439934-46.327118-55.347562-83.822081-55.31584-43.255153 0.032746-82.204234 37.896098-82.204234 64.979944l-25.447579 0c0-26.629497-48.176233-64.979944-89.683579-64.979944-39.759539 0-86.058005 39.176254-86.058005 64.979944l-26.094308 0c0-26.629497-47.077202-64.979944-86.835717-64.979944-41.507346 0-74.337055 30.936593-74.337055 64.979944L300.947701 459.731822c0-26.548656-36.359093-65.804728-76.214822-65.804728-40.503483 0-83.856873 12.771885-83.856873 49.228191l0 62.293765 740.066299 0L880.942305 450.067718z"  horiz-adv-x="1024" />

    
    <glyph glyph-name="jiantou" unicode="&#58931;" d="M313.987456-127.943672c-5.644178 0-11.313329 1.898042-15.983511 5.769049-10.589076 8.84088-12.012607 24.574648-3.196702 35.188699l378.909107 454.581042-380.832123 464.620685c-8.740982 10.663998-7.19258 26.397767 3.496393 35.13875 10.688973 8.740982 26.397767 7.167606 35.13875-3.496393l393.893649-480.579221c7.592167-9.265441 7.542219-22.601684-0.124871-31.817176l-392.145452-470.464656C328.247744-124.896816 321.130087-127.943672 313.987456-127.943672z"  horiz-adv-x="1024" />

    
    <glyph glyph-name="xiaomi" unicode="&#58977;" d="M716.8 90.176853 716.8 511.290027c0 95.68256-77.544107 173.2608-173.216427 173.2608L56.664747 684.550827c-3.754667 0-6.795947-3.024213-6.795947-6.741333L49.8688 90.180267c0-3.71712 3.04128-6.72768 6.795947-6.72768l130.061653 0c3.754667 0 6.792533 3.027627 6.792533 6.765227L193.518933 551.437653c0 3.744427 3.04128 6.782293 6.795947 6.782293l279.68512 0c52.52096 0 95.112533-42.571093 95.112533-95.09888l0-372.8896c0-3.741013 3.037867-6.761813 6.772053-6.761813l128.146773 0c3.72736 0 6.772053 3.017387 6.772053 6.72768M454.15424 90.221227c0-3.744427-3.01056-6.76864-6.76864-6.76864L317.354667 83.452587c-3.754667 0-6.795947 3.027627-6.795947 6.76864L310.55872 443.651413c0 3.741013 3.04128 6.77888 6.795947 6.77888l130.030933 0c3.75808 0 6.76864-3.037867 6.76864-6.77888l0-353.447253L454.15424 90.221227zM974.134613 90.221227c0-3.744427-3.044693-6.76864-6.79936-6.76864l-130.000213 0c-3.764907 0-6.826667 3.027627-6.826667 6.76864L830.508373 677.748053c0 3.75808 3.06176 6.792533 6.826667 6.792533l130.000213 0c3.75808 0 6.79936-3.034453 6.79936-6.792533L974.134613 90.221227z"  horiz-adv-x="1024" />

    
    <glyph glyph-name="huiyuan" unicode="&#58956;" d="M0.559613 575.662797c1.102253 3.088506 2.205505 6.172215 3.308157 9.260122 8.381717 25.141954 30.434765 42.121242 57.338524 43.887644 24.482401 1.765803 48.960605-12.568878 60.426831-35.066225 11.690074-22.936449 8.381717-50.05886-8.601568-70.126854-1.981057-2.205505-3.966711-4.411009-6.172215-7.059614 47.414253-29.108664 94.609055-57.778226 141.580608-86.66644 17.86189-11.026924 35.728776-22.054047 53.591065-32.640869 10.143523-5.952964 18.081741-4.191158 23.595402 5.732513 54.030767 98.357114 108.060935 196.938076 162.535401 296.397842-23.599999 11.909325-38.817082 30.211517-40.139186 57.338524-0.883401 18.964542 5.732513 35.285077 19.18899 48.516906 26.683309 26.024755 70.568954 23.595402 93.941108-5.292811 26.911754-33.080571 17.204335-71.673805-25.576459-100.782469 13.896578-25.581056 28.007011-51.166109 42.117245-76.747365 39.255385-71.453954 78.28872-142.683461 117.546104-214.136815 9.045867-16.540186 14.773983-18.081741 30.874867-8.382317 60.646682 37.051879 121.291564 74.322409 181.940245 111.369292 2.868055 1.766203 5.512263 3.532005 8.82002 5.513662-12.567479 12.572876-20.512093 26.687306-21.389498 44.106496-1.766802 32.640869 20.725948 61.310232 52.264565 66.603643 32.863718 5.733113 63.290889-13.012577 73.000306-44.770046 0.66355-2.424756 1.766802-5.069563 2.644207-7.498316l0-22.054047c-10.362974-33.079972-31.538417-52.264365-67.925746-52.483816-1.317107-3.751856-2.644207-7.499315-3.747459-11.246775-35.509924-121.732665-71.009655-243.688779-106.51958-365.421844-4.624864-15.88523-10.138926-20.072391-26.240209-20.072391-204.432795 0-408.649336 0-613.081731 0-17.203336 0-22.496747 3.971307-27.127607 20.072391-28.888813 98.792818-57.558375 197.81748-86.446589 296.612697-7.718767 26.683908-15.661382 53.372214-23.5994 80.275373-27.12361 0-47.635103 10.807073-60.42743 34.182824-3.083909 5.732513-5.069963 12.128777-7.494319 18.305589C0.559613 561.108664 0.559613 568.383132 0.559613 575.662797L0.559613 575.662797zM511.756221 40.425887c95.493056 0 190.985912 0 286.468974 0 25.586652 0 45.872698-18.081741 48.742952-42.341293 2.868055-24.481402-13.233028-46.750303-37.930283-52.264565-3.531606-0.887398-7.279065-1.101253-10.812669-1.101253-190.976118 0-381.960631 0-573.161397 0-21.833197 0-40.134789 13.007181-46.531252 32.63987-6.615914 19.624694-0.443699 41.901391 16.978888 53.143769 9.04127 5.736111 20.951195 9.707418 31.538617 9.707418C322.098809 40.865589 416.927715 40.425887 511.756221 40.425887L511.756221 40.425887 511.756221 40.425887z"  horiz-adv-x="1039" />

    
    <glyph glyph-name="jiantou-copy-copy" unicode="&#59009;" d="M767.707 376.549l-459.642 447.973-52.012-50.732 407.574-397.211-407.542-397.21 51.975-50.733z"  horiz-adv-x="1024" />

    
    <glyph glyph-name="weibiaoti2fuzhi04" unicode="&#58913;" d="M838.4 416c-19.2 0-38.4-12.8-38.4-38.4 0-19.2 12.8-32 38.4-32 19.2 0 32 12.8 32 32C870.4 403.2 857.6 416 838.4 416zM851.2 236.8c-19.2 0-32-12.8-32-32l0-115.2c0-19.2-19.2-38.4-38.4-38.4L160 51.2c-19.2 0-38.4 19.2-38.4 38.4l0 576c0 19.2 19.2 38.4 38.4 38.4l620.8 0c19.2 0 38.4-19.2 38.4-38.4l0-121.6c0-19.2 12.8-32 32-32 19.2 0 32 12.8 32 32L883.2 678.4c0 51.2-44.8 96-96 96L153.6 774.4C108.8 768 64 729.6 64 678.4l0-582.4C64 38.4 108.8 0 153.6 0l633.6 0c51.2 0 96 44.8 96 89.6l0 115.2C883.2 224 870.4 236.8 851.2 236.8zM902.4 409.6l0-57.6c0-19.2-19.2-38.4-38.4-38.4L544 313.6C524.8 313.6 512 332.8 512 352L512 409.6C512 428.8 524.8 448 544 448l313.6 0C883.2 448 902.4 428.8 902.4 409.6zM870.4 505.6 544 505.6C492.8 505.6 454.4 473.6 448 422.4c0 0 0-6.4 0-6.4l0-70.4C448 294.4 492.8 256 544 256l326.4 0c51.2 0 89.6 44.8 89.6 89.6l0 64C960 467.2 915.2 505.6 870.4 505.6z"  horiz-adv-x="1024" />

    
    <glyph glyph-name="liwu" unicode="&#58914;" d="M924.649248 73.490014 924.649248 379.818771c21.098527 12.180414 35.259038 34.95614 35.259038 61.081147L959.908286 518.980227c0 38.885636-31.564903 70.502727-70.50989 70.502727l-92.732008 0c2.031263 1.215688 4.050246 2.440585 6.051833 3.677762 42.710754 26.396183 71.222111 52.741201 79.844489 81.858356 8.915044 30.106692-5.238304 57.455573-38.946011 76.966952-38.893822 22.51376-86.874603 25.088398-141.296073 12.032034-38.808888-9.31004-79.630618-26.253944-121.081683-48.621371-22.441105-12.109806-43.670615-25.061792-63.065338-38.024012-4.710278-3.14769-9.074679-6.139837-13.083993-8.951883-6.860245 6.130627-13.867846 12.18553-21.047362 18.104333-60.102866 49.556673-120.3009 82.089623-178.51065 89.178065-47.313585 5.762237-91.119277-5.932106-128.96421-37.111223l-2.709715-2.62478c-1.222851-1.39272-2.399653-2.796696-3.529383-4.211928-38.202067-47.88766-20.659529-97.891518 27.161616-142.272307l-60.288085 0c-39.051411 0-70.50989-31.546483-70.50989-70.502727l0-78.08031c0-26.058492 14.186094-48.836265 35.259038-61.038168l0-306.371736c0-51.970652 42.047652-93.820805 94.055143-93.820805l634.591059 0C882.690624-20.329768 924.649248 21.60839 924.649248 73.490014zM603.601254 674.133913c38.149878 20.586874 75.376735 36.037774 109.707634 44.274366 43.72792 10.489912 79.850629 8.55177 106.71651-6.999414 16.350386-9.464559 19.618826-15.780405 17.451464-23.098068-4.270257-14.421454-26.194592-34.679847-59.513442-55.271838-14.854313-9.18008-30.887474-17.828041-46.931892-25.63996-9.611915-4.679579-17.024745-8.011464-21.10876-9.732665-4.241604-1.787716-7.677866-4.674463-10.128685-8.185426L578.456574 589.480908c-0.849344 3.066849-2.323928 6.012947-4.477988 8.629541-1.252527 1.521656-3.5345 4.210905-6.777357 7.900947-5.322216 6.055926-11.461029 12.780071-18.346857 20.006659-2.964518 3.110851-5.992481 6.218632-9.052167 9.324366 1.469468 0.998747 2.978844 2.015913 4.5312 3.053546C562.564629 650.581498 582.550823 662.775214 603.601254 674.133913zM273.063119 591.664643c-2.225691 1.238201-6.499018 3.817955-12.116969 7.561209-9.450233 6.296403-18.900465 13.420661-27.631314 21.152762-35.000142 30.993898-45.433772 58.057277-26.204825 82.161255 0.300852 0.3776 0.636496 0.75827 0.953721 1.136893 27.187199 21.762653 57.552787 29.628808 91.77317 25.461905 47.482431-5.782703 100.449783-34.407648 154.260339-78.775134 21.828145-17.997909 42.267663-37.33635 60.690244-56.668651 1.362021-1.428535 2.683109-2.830465 3.979638-4.212952L276.309046 589.481931C275.30416 590.284203 274.223548 591.017914 273.063119 591.664643zM113.702622 518.980227c0 13.100366 10.464329 23.593348 23.499204 23.593348l752.196571 0c12.941753 0 23.499204-10.574846 23.499204-23.593348l0-78.08031c0-6.303566-2.427282-11.999288-6.393617-16.217357-1.722224 0.401136-3.514033 0.620124-5.359055 0.620124L125.455293 425.302685c-1.825578 0-3.599991-0.214894-5.306866-0.607844-3.988848 4.229325-6.445806 9.931187-6.445806 16.205077L113.702622 518.980227zM196.004069 26.578588c-26.069749 0-47.043433 20.874423-47.043433 46.911426L148.960637 370.397191l728.676901 0 0-296.907177c0-25.993001-20.928658-46.911426-47.043433-46.911426L196.004069 26.578588z"  horiz-adv-x="1024" />

    
    <glyph glyph-name="daifukuan" unicode="&#58900;" d="M900.423111 19.498667a37.404444 37.404444 0 0 0-37.361778-37.361778H91.264a37.404444 37.404444 0 0 0-37.361778 37.361778V748.501333a37.404444 37.404444 0 0 0 37.361778 37.361778h771.783111a37.404444 37.404444 0 0 0 37.361778-37.361778v-164.849777h53.902222V748.501333a91.363556 91.363556 0 0 1-91.264 91.264H91.264A91.363556 91.363556 0 0 1 0 748.501333v-729.002666a91.363556 91.363556 0 0 1 91.264-91.264h771.783111a91.363556 91.363556 0 0 1 91.264 91.264V189.710222h-53.888v-170.211555zM868.423111 539.576889h-321.564444c-85.788444 0-155.576889-69.788444-155.576889-155.576889s69.788444-155.576889 155.576889-155.576889h321.564444C954.211556 228.423111 1024 298.211556 1024 384s-69.788444 155.576889-155.576889 155.576889z m0-257.265778h-321.564444c-56.064 0-101.688889 45.624889-101.688889 101.688889s45.624889 101.688889 101.688889 101.688889h321.564444c56.064 0 101.688889-45.624889 101.688889-101.688889s-45.624889-101.688889-101.688889-101.688889zM604.586667 384m-48.355556 0a48.355556 48.355556 0 1 1 96.711111 0 48.355556 48.355556 0 1 1-96.711111 0Z"  horiz-adv-x="1024" />

    
    <glyph glyph-name="konggouwuche" unicode="&#58908;" d="M819.21713 72.633505c-54.722433 0-99.307379-45.014945-99.307379-100.321127 0-55.296182 44.584946-100.311128 99.307379-100.311128 54.733683 0 99.318629 45.014945 99.318628 100.311128-0.14375 55.296182-44.728695 100.321128-99.318628 100.321127z m0-147.76357a47.414942 47.414942 0 0 0-47.441192 47.442443 47.407442 47.407442 0 0 0 47.441192 47.441192 47.409942 47.409942 0 0 0 47.442442-47.441192c-0.04-26.184968-21.256224-47.402442-47.442442-47.442443z m-9.144989 287.0784c-4.853744 0-10.004988 0.14375-15.287481 0.429999l-395.825767-0.429999s-13.578733 7.291241-13.434984 25.722469c0 17.581229 13.147484 26.009968 13.147484 26.009968h414.689494c44.441196 1.719998 71.587413 4.711244 93.314886 34.868707 6.707492 9.287489 11.714986 20.858725 17.284979 35.296207l53.586184 188.18977c6.861242 33.587459-1.853748 46.448693-11.283736 56.873681-14.724982 16.29123-56.013682 16.43498-56.013681 16.43498H346.948956s-12.861234 7.577491-12.861234 26.438718c0 17.572479 12.861234 24.86372 12.861234 24.863719h563.436812c5.427493-0.429999 56.166181 4.289995 92.313638-30.157463 21.574974-20.582475 27.718716-48.291191 24.28872-78.734904-1.996248-17.714978-59.012428-236.922211-84.018647-271.359668-22.867472-31.723711-55.021183-54.446184-132.897338-54.446184z m-463.123185-100.023628c-44.727445 0-58.306179 10.719987-71.741162 27.287467-17.571229 21.872473-19.864976 50.309939-22.854972 63.448672L162.752931 634.787819c-1.997498 12.431235-15.872481 30.147463-27.863716 37.007455-20.008726 11.284986-103.607374 6.573742-120.176103 7.57749 0 0-10.291237 8.14124-10.291238 24.71997 0 19.004977 10.003738 25.722469 10.003738 25.722469 6.431242 0.563749 16.43498 0.563749 51.016188 0.849999 49.43869 0.14375 79.452403 0 110.316115-21.432474 33.432459-23.296222 35.716206-57.01618 40.437451-86.599894l90.879889-430.693225 1.003749-4.711244c1.852498-5.427493 3.992495-9.861238 10.291237-15.432481 7.423741-6.573742 15.287481-8.29374 22.711222-8.56999h1.433749l583.300538 0.1425v-51.158687H352.806449a76.966156 76.966156 0 0 0-5.857493-0.285z m99.307379-39.291202c-54.722433 0-99.307379-45.014945-99.307379-100.321127 0-55.296182 44.584946-100.311128 99.307379-100.311128 54.733683 0 99.318629 45.014945 99.318629 100.311128-0.14375 55.296182-44.584946 100.321128-99.318629 100.321127z m0-147.76357a47.414942 47.414942 0 0 0-47.441192 47.442443 47.407442 47.407442 0 0 0 47.441192 47.441192c26.184968-0.03875 47.402442-21.256224 47.442442-47.441192-0.04-26.184968-21.257474-47.402442-47.442442-47.442443z m17.152479 808.509014l-40.86745 101.313626c-4.532494 11.367486 0.953749 24.26247 12.287485 28.877465l6.431242 2.559996c11.363736 4.526244 24.25122-0.959999 28.866215-12.287485l40.85745-101.314876c4.518744-11.361236-0.964999-24.24122-12.287485-28.856215l-6.421242-2.581246c-11.366236-4.532494-24.26122 0.954999-28.876215 12.288735h0.01z m389.529525 0l40.8762 101.313626c4.532494 11.367486-0.953749 24.26247-12.287485 28.877465l-6.431242 2.559996c-11.366236 4.531244-24.26122-0.954999-28.876215-12.287485l-40.8587-101.314876c-4.519994-11.361236 0.964999-24.24122 12.287485-28.856215l6.287492-2.581246c11.403736-4.553744 24.34747 0.928749 29.009965 12.288735h-0.0075zM636.311103 764.53891V873.851277c0 12.143735 10.004988 22.148723 22.149973 22.148723h6.859992c12.144985 0 22.149973-10.004988 22.149973-22.148723v-109.312367c-0.0625-12.206235-9.942488-22.087473-22.149973-22.148722h-6.859992c-12.207485 0.06125-22.088723 9.942488-22.149973 22.148722z"  horiz-adv-x="1058" />

    
    <glyph glyph-name="daishouhuo" unicode="&#58884;" d="M933.269 416.97c14.36 0 26 11.642 26 26.002V634.704c0 67.572-54.973 122.546-122.545 122.546H491.698c-67.572 0-122.546-54.974-122.546-122.546v-10.852H247.057c-32.384 0-62.537-14.521-82.728-39.84l-92.546-116.05c-20.381-25.558-31.605-57.634-31.605-90.322v-250.075h70.229c2.961-62.838 55.006-113.05 118.563-113.05s115.603 50.211 118.564 113.05h255.768c2.962-62.838 55.007-113.05 118.564-113.05 63.578 0 115.635 50.244 118.566 113.11 65.863 1.968 118.838 56.154 118.838 122.485v36.854c0 14.36-11.641 26.001-26.001 26.001s-26.002-11.641-26.002-26.001v-36.854c0-38.898-31.645-70.544-70.543-70.544h-5.582c-18.09 42.488-60.26 72.352-109.276 72.352s-91.186-29.864-109.276-72.352H421.154V634.704c0 38.898 31.646 70.544 70.544 70.544h345.026c38.898 0 70.543-31.646 70.543-70.544v-191.732c0-14.36 11.64-26.001 26.002-26.001z m-704.3-350.453c-36.777 0-66.698 29.922-66.698 66.7s29.921 66.7 66.699 66.7 66.699-29.921 66.699-66.7-29.92-66.7-66.7-66.7z m109.278 113.05c-18.09 42.488-60.26 72.352-109.276 72.352-49.015 0-91.186-29.864-109.276-72.352H92.18V377.64c0 20.954 7.195 41.516 20.26 57.899l92.546 116.05c10.267 12.875 25.602 20.26 42.07 20.26h122.096v-392.282h-30.905z m383.619 20.348c36.777 0 66.699-29.92 66.699-66.699s-29.92-66.7-66.7-66.7-66.698 29.922-66.698 66.7 29.92 66.7 66.699 66.7zM303.583 558.282c-14.36 0-26.001-11.64-26.001-26v-100.614H176.968c-14.36 0-26.002-11.641-26.002-26.002s11.641-26 26.002-26h152.616V532.28c0 14.36-11.64 26.001-26 26.001z"  horiz-adv-x="1024" />

    
    <glyph glyph-name="jiantou1" unicode="&#58898;" d="M63.815421 172.295344L510.52541599 628.236584 957.234387 172.295344 922.540214 136.85620300000005 510.52541599 557.507706 98.509594 136.85620300000005Z"  horiz-adv-x="1024" />

    
    <glyph glyph-name="fma" unicode="&#58880;" d="M891.521-62.49599999999998L132.477-62.49599999999998c-36.9976 0-66.9744 29.9767-66.9744 66.9744L65.5023 763.5219999999999c0 36.9874 29.9767 66.9744 66.9744 66.9744l759.044 0c36.9976 0 66.9744-29.988 66.9744-66.9744l0-759.044C958.496-32.519000000000005 928.519-62.49599999999998 891.521-62.49599999999998ZM936.171 741.197c0 36.9864-29.9778 66.9744-66.9744 66.9744L154.802 808.1717c-36.9976 0-66.9744-29.989-66.9744-66.9744l0-714.395c0-36.9966 29.9767-66.9744 66.9744-66.9744l714.395 0c36.9966 0 66.9744 29.9778 66.9744 66.9744L936.171 741.197ZM656.042 614.9549999999999L395.078 614.9549999999999l0-506.571 65.4046 0L460.482 329.789l181.171 0 0 57.5569L460.482 387.346l0 169.398 195.56 0L656.042 614.9549999999999Z"  horiz-adv-x="1024" />

    
    <glyph glyph-name="arrow-right-copy" unicode="&#58881;" d="M904.333 559.267l-55.71999999 56.278-337.15400001-334.857-334.31500001 337.673-56.18399999-55.802 390.03999999-393.944z"  horiz-adv-x="1024" />

    
    <glyph glyph-name="shezhi1" unicode="&#58899;" d="M986.746539 471.536573l-42.140974 42.140974a122.147749 122.147749 0 0 0-36.033586 86.114162v61.073875a122.147749 122.147749 0 0 1-122.147748 122.147748h-61.073875a122.147749 122.147749 0 0 0-86.114162 36.033586L598.316698 859.966414a122.147749 122.147749 0 0 1-172.839065 0l-42.140973-42.140973a122.147749 122.147749 0 0 0-86.114163-36.033586h-61.073874a122.147749 122.147749 0 0 1-122.147749-122.147749v-61.073874a122.147749 122.147749 0 0 0-36.033586-86.114163l-42.140973-42.140973a122.147749 122.147749 0 0 1 0-172.839065l42.140973-42.140973a122.147749 122.147749 0 0 0 36.033586-86.114163v-61.073874a122.147749 122.147749 0 0 1 122.147749-122.147749h61.073874a122.147749 122.147749 0 0 0 86.114163-36.033585l42.140973-42.140974a122.147749 122.147749 0 0 1 172.839065 0l42.140973 42.140974a122.147749 122.147749 0 0 0 86.114163 36.033585h61.073874a122.147749 122.147749 0 0 1 122.147749 122.147749v61.073874a122.147749 122.147749 0 0 0 36.033586 86.114163l42.140973 42.140973a122.147749 122.147749 0 0 1-1.221477 174.060542z m-43.362451-129.476613l-42.140973-42.140974a183.221623 183.221623 0 0 1-53.74501-129.476613v-61.073874a61.073874 61.073874 0 0 0-61.073874-61.073875h-61.073875a183.221623 183.221623 0 0 1-129.476613-53.745009l-42.140973-42.140974a61.073874 61.073874 0 0 0-86.114163 0L428.531327-4.228908a183.221623 183.221623 0 0 1-129.476613 53.74501h-61.073875a61.073874 61.073874 0 0 0-61.073874 61.073874v61.073874A183.221623 183.221623 0 0 1 123.161955 299.918986l-42.140973 42.140974a61.073874 61.073874 0 0 0 0 86.114163L123.161955 468.48288a183.221623 183.221623 0 0 1 53.74501 129.476613v61.073875a61.073874 61.073874 0 0 0 61.073874 61.073874h61.073875A183.221623 183.221623 0 0 1 428.531327 773.852251l42.140973 42.140974a61.073874 61.073874 0 0 0 86.114163 0l40.308757-42.140974a183.221623 183.221623 0 0 1 129.476614-53.745009h61.073874a61.073874 61.073874 0 0 0 61.073875-61.073874v-61.073875A183.221623 183.221623 0 0 1 901.243115 468.48288l42.140973-42.140974a61.073874 61.073874 0 0 0 0-86.114162zM511.591796 599.180971a213.75856 213.75856 0 1 1 213.75856-213.75856 213.75856 213.75856 0 0 1-213.75856 213.75856z m0-366.443246a152.684686 152.684686 0 1 0 152.684686 152.684686 152.684686 152.684686 0 0 0-152.684686-152.684686z"  horiz-adv-x="1026" />

    
    <glyph glyph-name="banshou" unicode="&#58938;" d="M159.073745-71.187948a102.985143 102.985143 0 0 0-73.366275 30.214649c-40.789777 40.789777-40.130161 107.793953 1.446899 149.392291l351.447439 351.468717c-42.300509 101.836135-19.107574 220.758442 59.365402 299.231418a272.357403 272.357403 0 0 0 193.863148 80.302878c36.108634 0 71.281039-6.936603 104.517154-20.618306a15.958442 15.958442 0 0 0 5.213091-26.022899l-150.605133-150.605132 21.426868-96.452821 96.45282-21.426868 150.626411 150.605133a15.958442 15.958442 0 0 0 26.022899-5.213091 273.591522 273.591522 0 0 0-59.684572-298.380302 272.48507 272.48507 0 0 0-193.884426-80.324155h-0.021278c-36.002244 0-72.174712 7.234494-105.325714 20.980031l-351.468717-351.468717a106.815169 106.815169 0 0 0-76.026016-31.682826z m532.756613 878.671792a240.653299 240.653299 0 0 1-171.287272-70.940592 243.185371 243.185371 0 0 1-48.449829-273.50641 15.915886 15.915886 0 0 0-3.191688-18.001123l-359.171325-359.171324c-29.150753-29.150753-29.789091-75.898348-1.446899-104.24054 27.491075-27.469797 76.026016-26.767626 104.261819 1.446898l359.171324 359.171325a15.937164 15.937164 0 0 0 18.001122 3.191688 244.483325 244.483325 0 0 1 102.176582-22.533319c64.706161 0 125.53974 25.214338 171.329829 70.96187a241.738473 241.738473 0 0 1 60.918691 240.589465l-138.944831-138.944831a15.87333 15.87333 0 0 0-14.7456-4.298141l-114.922058 25.512229a15.958442 15.958442 0 0 0-12.107137 12.107138l-25.512229 114.922057a15.958442 15.958442 0 0 0 4.29814 14.7456l138.923554 138.923553a242.057642 242.057642 0 0 1-69.302193 10.064457z m-521.30909-825.64721a62.046421 62.046421 0 0 0-43.83252 105.836384c23.426992 23.426992 64.259325 23.426992 87.665039 0a62.046421 62.046421 0 0 0-43.832519-105.836384z m0 92.069569a30.10826 30.10826 0 0 1-21.256645-51.343626c11.36241-11.341132 31.150878-11.319855 42.534567 0a30.10826 30.10826 0 0 1-21.277922 51.343626z"  horiz-adv-x="1024" />

    
    <glyph glyph-name="yunliankeji_gongyinglianfuben" unicode="&#58897;" d="M602.24-53.333333H426.666667V-42.666667a92.16 92.16 0 0 1-91.52 90.026667 91.093333 91.093333 0 0 1-64-26.24l-7.466667-7.466667-119.68 119.68 7.253333 7.466667A91.52 91.52 0 0 1 85.333333 296.106667h-10.666666v167.68H85.333333A91.946667 91.946667 0 0 1 177.066667 554.666667a90.666667 90.666667 0 0 1-29.44 66.986666l-8.106667 7.466667 123.306667 123.306667 7.466666-7.466667A91.733333 91.733333 0 0 1 426.666667 810.666667v10.666666h175.146666V810.666667a91.52 91.52 0 0 1 154.026667-66.986667l7.466667 7.04 117.546666-117.333333-7.466666-7.466667A91.733333 91.733333 0 0 1 938.666667 469.333333h10.666666v-167.68H938.666667a91.946667 91.946667 0 0 1-91.733334-91.733333 90.88 90.88 0 0 1 27.733334-65.92l7.893333-7.466667-118.826667-119.253333-7.466666 7.04A91.52 91.52 0 0 1 602.24-42.666667z m-154.24 21.333333h133.76a112.64 112.64 0 0 0 181.546667 78.506667L853.333333 136.533333a111.786667 111.786667 0 0 0-27.306666 73.386667 113.28 113.28 0 0 0 102.4 112.64V448a113.066667 113.066667 0 0 0-76.586667 184.533333l-88.96 88.96a112.213333 112.213333 0 0 0-68.906667-23.893333 113.28 113.28 0 0 0-112.64 102.4H448a113.28 113.28 0 0 0-112.64-102.4 112.213333 112.213333 0 0 0-72.106667 26.026667L170.666667 630.186667A111.36 111.36 0 0 0 198.4 554.666667a113.28 113.28 0 0 0-102.4-112.64v-126.08a113.28 113.28 0 0 0 102.4-112.64 112.213333 112.213333 0 0 0-24.746667-70.4L264.32 42.666667a112.213333 112.213333 0 0 0 71.04 25.173333A113.706667 113.706667 0 0 0 448-32zM512 181.333333a202.666667 202.666667 0 1 0 202.666667 202.666667 202.88 202.88 0 0 0-202.666667-202.666667z m0 384a181.333333 181.333333 0 1 1 181.333333-181.333333 181.546667 181.546667 0 0 1-181.333333 181.333333z"  horiz-adv-x="1024" />

    
    <glyph glyph-name="liwu1" unicode="&#59035;" d="M1028.725 512.383c0 40.487-33.208 73.402-74.222 73.402h-57.68c24.119 23.234 39.138 55.684 39.138 91.708 0.001 70.882-58.145 128.383-129.846 128.383-72.994 0-120.58-71.643-149.271-139.234-15.372 6.688-34.206 10.852-54.802 10.852-20.538 0-39.37-4.105-54.803-10.852-28.695 67.591-76.282 139.234-149.271 139.234-60.787 0-111.425-41.483-125.562-97.226 11.792-2.405 23.761-5.573 35.906-9.445 9.798 40.253 46.296 70.355 89.951 70.355 53.392 0 93.174-63.079 118.522-125.451-4.047-5.632-6.16-11.676-6.863-18.072 1.993 0.354 3.873 0.707 5.516 1.235-2.408-0.766-3.993-1.763-5.81-2.815-0.059-0.707-0.354-1.294-0.354-2.055 0-11.796 6.751-22.53 17.543-31.451-0.176-0.059-0.233-0.174-0.408-0.232-24.115-7.512-70.882-6.455-156.545 40.37-190.575 104.262-274.658 4.046-275.6 2.99-6.455-7.861-5.219-19.418 2.7-25.758 7.924-6.338 19.597-5.219 26.111 2.7 0.703 0.881 65.071 77.569 228.774-11.97 58.907-32.273 108.959-48.406 149.329-48.406 8.155 0 15.842 0.936 23.174 2.172 0.587-1.235 1.411-2.525 1.997-3.698h57.148v-146.746H212.435V512.447c0 20.301 16.604 36.671 37.144 36.671h123.157c-12.557 5.812-25.404 12.087-38.668 19.361a393.316 393.316 0 0 1-36.143 17.369h-48.346c-41.014 0-74.227-32.916-74.227-73.402V365.7h55.684v-330.164c0-40.549 33.211-73.407 74.226-73.407h593.672c41.014 0 74.227 32.858 74.227 73.407V365.521h55.858l-0.296 146.866zM583.558-1.203H305.263c-20.481 0-37.083 16.371-37.083 36.671v330.17h315.378v-366.842z m111.248 623.602c0 7.745-2.698 15.078-7.508 21.707 25.346 62.372 65.071 125.451 118.522 125.451 51.166 0 92.767-41.136 92.767-91.711 0-50.518-41.601-91.706-92.767-91.706H671.277c14.495 9.678 23.529 22.352 23.529 36.26z m-92.764-18.309c-7.454 0-14.612 0.528-21.183 1.41-1.76 3.171-4.163 5.985-7.686 7.686-5.806 2.874-12.202 2.055-17.429-0.939-5.864 2.937-9.33 6.398-9.33 10.152 0 10.147 24.939 18.362 55.627 18.362 30.745 0 55.684-8.273 55.684-18.362 0-10.093-24.939-18.308-55.684-18.308z m333.92-568.62c0-20.301-16.603-36.671-37.083-36.671H620.586V365.641h315.377v-330.17z m55.743 366.84H620.644V549.055h333.92c20.534 0 37.142-16.371 37.142-36.671V402.31z m0 0z"  horiz-adv-x="1140" />

    
    <glyph glyph-name="jiantou-copy" unicode="&#58882;" d="M697.391361-61.46360800000002L270.01776 354.60655298999995l0 0-30.527271 29.72090501 30.527271 29.718859 0 0L697.391361 830.116477l30.525224-29.718859-427.370531-416.07016 427.370531-416.07016L697.391361-61.46360800000002z"  horiz-adv-x="1024" />

    
    <glyph glyph-name="jiantou11" unicode="&#58940;" d="M238.667 383.999c0 6.36100001 2.58 12.12 6.75 16.287l432.558 432.248c8.995 8.989 23.573 8.984 32.562-0.011s8.984-23.573-0.011-32.562l-416.26-415.963 416.262-415.96c8.995-8.987 9.001-23.565 0.011-32.56199999-8.989-8.995-23.566-9.00000001-32.562-0.01200002l-432.56 432.24700001c-4.17 4.168-6.749 9.927-6.75 16.287z"  horiz-adv-x="1024" />

    
    <glyph glyph-name="zhongchou" unicode="&#58981;" d="M625.8 331.3c79.8 40.3 134.5 123 134.5 218.5 0 135.2-109.6 244.7-244.7 244.7S270.8 685 270.8 549.8c0-94.1 53.1-175.8 131-216.7-122.5-44.8-210-162.4-210-300.4v-0.6c0.1-32.6 46.4-58.6 79-58.6h481.6c32.6 0 78.9 26.1 79 58.6v0.6c-0.1 136.3-85.5 252.6-205.6 298.6zM326 549.8c0 104.5 85 189.5 189.5 189.5S705 654.3 705 549.8s-85-189.5-189.5-189.5S326 445.3 326 549.8z m424.4-521.1H273.2s-34.1 7.9-19.5 63.1C284.5 208.3 386 297.2 511.6 297.2c124.9 0 227-87.7 257.4-203.6 14.9-57-18.6-64.9-18.6-64.9zM257.1 294.7c3.2 1.1 14.6 6.7 28.1 13.4 24.6 12.2 26.2 46.6 2.9 61.1-13.3 8.3-24.6 15.3-27.1 16.7-48.5 28-81.1 80.4-81.1 140.3 0 59.8 32.6 112.2 81 140.2 4.5 2.6 10.2 5.9 16.5 9.5 21.9 12.5 9.6 45.9-15.2 41.6-5.7-1-11-2.5-15.3-4.8-67.8-34.6-114.4-105.2-114.4-186.5 0-80.5 45.7-150.5 112.6-185.5C139.5 304.5 64 210 64 99c0-17.2 8-34.2 21.8-46.6 14.7-13.2 34.3-20.2 55.9-20.2 3.6 0 26.5 4.4 26.5 28.1 0 18.5-20.5 19.6-20.5 19.6-12.2-1.3-23.2 1.5-30.1 7.8-3.8 3.4-6 7.6-6.1 11.8-0.1 88.7 60.4 164.7 145.6 195.2zM778.9 340.7c66.8 35 112.6 105 112.6 185.5 0 81.2-46.5 151.8-114.4 186.5-4.3 2.2-9.6 3.8-15.3 4.8-24.9 4.4-37.2-29-15.2-41.6 6.3-3.6 12-6.9 16.5-9.5 48.4-28 81-80.4 81-140.2 0-59.9-32.7-112.3-81.1-140.3-2.5-1.4-13.8-8.4-27.1-16.7-23.3-14.5-21.6-48.9 2.9-61.1 13.5-6.7 25-12.2 28.1-13.4 85.2-30.5 145.7-106.5 145.7-195.2 0-4.2-2.2-8.4-6.1-11.8-7-6.2-17.9-9.1-30.1-7.8 0 0-20.5-1.1-20.5-19.6 0-23.7 22.9-28.1 26.5-28.1 21.6 0 41.1 7 55.9 20.2C952 64.8 960 81.8 960 99c0 111-75.5 205.5-181.1 241.7z"  horiz-adv-x="1024" />

    
    <glyph glyph-name="miaosha" unicode="&#58999;" d="M504.32 768c243.2 0 440.32-197.12 440.32-440.32s-197.12-440.32-440.32-440.32C261.12-115.2 64 81.92 64 327.68 64 570.88 261.12 768 504.32 768z m-92.16-714.24L678.4 350.72c0 5.12 2.56 7.68 2.56 10.24 0 2.56-2.56 5.12-7.68 5.12l-138.24 17.92 64 215.04c0 5.12 0 10.24-5.12 10.24-2.56 2.56-7.68 2.56-10.24 0L296.96 317.44c-2.56-5.12-2.56-7.68-2.56-10.24 0-2.56 2.56-5.12 7.68-5.12l156.16-20.48-64-215.04c-2.56-5.12 0-7.68 5.12-10.24l2.56-2.56c5.12-2.56 7.68-2.56 10.24 0z m529.92 542.72c-76.8 112.64-194.56 194.56-330.24 222.72 35.84 46.08 92.16 76.8 158.72 76.8 110.08 0 199.68-89.6 199.68-199.68-2.56-38.4-12.8-71.68-28.16-99.84zM394.24 816.64C258.56 788.48 140.8 706.56 64 596.48c-15.36 28.16-25.6 64-25.6 99.84C38.4 806.4 128 896 238.08 896c64 0 120.32-30.72 156.16-79.36z"  horiz-adv-x="1024" />

    
    <glyph glyph-name="ren" unicode="&#58883;" d="M821.86052 507.124048c0-4.800938 0.10002-9.601875 0-14.402813-0.200039-7.201407-1.000195-14.302794-1.700332-21.5042-1.000195-9.701895-2.700527-19.30377-4.600899-28.805627-2.10041-10.402032-4.900957-20.504005-8.201602-30.505958-7.601485-23.504591-17.903497-45.808947-30.806017-66.913069-6.301231-10.201993-13.102559-20.103927-20.504004-29.505763-10.201993-13.00254-21.204141-25.204923-33.406525-36.40711-13.402618-12.402422-27.805431-23.60461-43.10842-33.506545-17.003321-10.902129-34.806798-20.203946-53.610471-27.705411-12.502442-5.000977-25.204923-9.201797-38.207462-12.502442-13.302598-3.400664-26.805235-5.701113-40.507912-7.501465-18.203555-2.400469-36.407111-2.20043-54.610666-1.600312-8.901739 0.300059-17.803477 1.600313-26.705216 2.800547-11.702286 1.600313-23.304552 4.000781-34.706778 7.101387-14.202774 3.800742-28.105489 8.60168-41.608127 14.402813-18.603634 8.001563-36.207072 17.603438-52.910334 28.905645-20.804063 14.102754-39.407697 30.505958-56.310998 49.009573-15.202969 16.703262-28.405548 35.006837-39.607736 54.610666-11.702286 20.303966-20.904083 41.708146-27.705411 64.112522-4.100801 13.602657-7.301426 27.505372-9.401837 41.508107-0.900176 6.001172-1.500293 12.002344-2.200429 18.103536-0.900176 8.7017-1.300254 17.503419-1.600313 26.305137-0.200039 6.50127 0.200039 13.102559 0.500098 19.603829 0.300059 5.901153 0.800156 11.802305 1.300254 17.703458 0.600117 5.901153 1.300254 11.702286 2.300449 17.603438 3.800742 22.304356 10.001954 43.908576 18.403594 64.912678 5.401055 13.502637 11.902325 26.505177 19.203751 39.107638 8.60168 14.702872 18.203555 28.605587 29.005665 41.708147 9.001758 11.002149 18.703653 21.5042 29.205705 31.106075 20.303966 18.503614 42.408283 34.40672 66.813049 47.209221 17.703458 9.301817 36.207072 16.803282 55.310803 22.704434 12.8025 3.900762 25.90506 6.901348 39.207658 9.101778 9.401836 1.500293 19.003712 2.500488 28.505567 3.300644 11.802305 1.000195 23.60461 0.600117 35.506935 0.500098 4.600899 0 9.201797-0.700137 13.802696-1.200234 3.800742-0.400078 7.601485-0.900176 11.402227-1.200235 10.201993-1.000195 20.203946-3.100606 30.2059-5.301035 10.502051-2.300449 20.704044-5.301035 30.806016-8.801719 13.202579-4.500879 26.005079-9.901934 38.407502-16.103145 14.602852-7.301426 28.505567-15.803087 41.808165-25.304943 7.901543-5.701113 15.603047-11.702286 22.904474-18.103536 9.701895-8.401641 18.803673-17.403399 27.405353-26.805235 10.302012-11.202188 19.503809-23.304552 28.005469-35.907013a312.661067 312.661067 0 0 0 26.105099-47.40926c6.701309-15.202969 12.202383-30.906036 16.303184-47.009181 2.900567-11.102168 5.000977-22.404376 6.701309-33.806603 2.20043-14.502833 3.400664-29.005665 2.900567-43.608517z m-62.51221-0.10002c0 4.30084 0.200039 8.60168 0 12.90252-0.400078 7.701504-1.400273 15.202969-2.400469 22.904474-1.300254 9.901934-3.500684 19.503809-6.101191 29.005665-1.900371 7.301426-4.30084 14.402813-6.901348 21.40418-4.900957 13.102559-10.902129 25.605001-17.803477 37.607346-5.301035 9.201797-11.202188 17.903497-17.603439 26.305137-9.001758 11.902325-19.103731 22.804454-30.10588 32.906427-10.902129 9.901934-22.504395 18.903692-35.006837 26.705216-16.703262 10.602071-34.40672 19.103731-53.110373 25.404962-11.502247 3.900762-23.204532 6.901348-35.206876 9.001758-10.101973 1.800352-20.203946 3.200625-30.405939 3.600703-4.000781 0.10002-8.001563-0.10002-12.002344 0.700137-1.500293 0.300059-3.200625-0.10002-4.800938-0.200039-1.100215-0.10002-2.20043-0.400078-3.300645-0.400078-6.201211 0-12.402422-0.300059-18.703653-1.000195-9.701895-1.100215-19.30377-2.500488-28.805626-4.700918-15.202969-3.400664-29.905841-8.201602-44.108615-14.402814-14.302794-6.201211-27.90545-13.602657-40.70795-22.304356-14.702872-10.001954-28.305528-21.304161-40.507912-34.3067-4.800938-5.100996-9.501856-10.302012-14.002735-15.803087-10.101973-12.502442-18.903692-25.80504-26.405157-39.907794-6.50127-12.302403-12.202383-25.004884-16.403204-38.307482-4.000781-12.502442-7.301426-25.104903-9.201797-38.207463-1.500293-10.001954-2.800547-19.903887-2.900567-30.00586 0-0.800156 0-1.600313-0.200039-2.400469-0.800156-3.800742-0.700137-7.701504-0.300059-11.502247 0.700137-6.801328 0.500098-13.702676 1.400274-20.604024 0.900176-6.50127 1.500293-13.00254 2.800547-19.40379 1.800352-9.301817 4.100801-18.403594 6.801328-27.405352 3.300645-11.002149 7.401446-21.804259 12.302403-32.206291 6.40125-13.602657 13.902715-26.605196 22.704435-38.907599 7.701504-10.80211 16.303184-21.004102 25.504981-30.505958 10.402032-10.70209 21.804259-20.203946 33.906622-28.905646 10.80211-7.801524 22.304356-14.402813 34.106662-20.403985 9.101778-4.600899 18.603634-8.401641 28.305528-11.802305 8.001563-2.800547 16.103145-5.100996 24.404767-7.001367 9.301817-2.10041 18.703653-4.000781 28.305528-4.900957 8.60168-0.900176 17.20336-1.600313 25.80504-1.700333 10.201993-0.200039 20.403985 0.800156 30.605978 1.700333 8.901739 0.900176 17.803477 2.400469 26.505177 4.400859 19.103731 4.40086 37.407306 10.902129 54.910725 19.603829 7.601485 3.800742 14.902911 8.001563 22.104317 12.502442 11.902325 7.301426 23.004493 15.703067 33.306505 25.004884 8.401641 7.601485 16.403204 15.703067 23.804649 24.304747 6.001172 7.101387 11.602266 14.502833 16.903302 22.104317 4.900957 7.101387 9.101778 14.602852 13.402618 22.204337 6.701309 11.902325 12.002344 24.404767 16.303184 37.307286 5.701113 17.003321 9.701895 34.40672 11.602266 52.310217 0.800156 9.101778 1.400273 18.203555 1.200234 27.305333zM511.299863 164.957218c6.201211 0 12.502442 0.400078 18.703653-0.100019 7.001367-0.600117 14.002735-0.500098 21.004103-1.200235 5.901153-0.600117 11.802305-1.100215 17.703457-1.500293 4.900957-0.300059 9.901934-1.000195 14.702872-1.900371 3.500684-0.700137 7.001367-0.900176 10.402032-1.500293 6.001172-0.900176 11.902325-2.10041 17.903496-3.200625 11.502247-2.000391 22.804454-4.700918 34.106662-7.701504 24.204727-6.301231 47.709318-14.302794 70.713811-24.004689 12.102364-5.100996 24.004688-10.602071 35.606955-16.603243 22.404376-11.402227 43.908576-24.404767 64.312561-39.007618 8.401641-6.101192 16.803282-12.302403 24.904864-18.703653 6.801328-5.301035 13.302598-11.002149 19.803868-16.703263 11.802305-10.101973 22.604415-21.304161 33.506544-32.20629 3.800742-3.800742 6.801328-8.101582 8.001563-13.402618 2.400469-10.602071 0.600117-20.403985-6.801328-28.605587-4.600899-5.100996-9.901934-9.001758-16.803282-10.60207-9.901934-2.300449-19.003712-0.300059-27.305333 5.401055-2.600508 1.800352-4.800938 4.100801-7.001368 6.501269-5.301035 5.801133-10.80211 11.402227-16.603243 16.603243-4.700918 4.100801-9.201797 8.50166-13.802695 12.602462-10.101973 8.901739-20.504005 17.30338-31.406135 25.204922-9.301817 6.801328-18.803673 13.202579-28.605587 19.303771-16.703262 10.502051-34.106661 19.703848-51.910138 27.90545-20.804063 9.501856-42.308263 17.30338-64.312561 23.504591-15.10295 4.30084-30.305919 7.801524-45.808947 10.201992-6.901348 1.100215-13.802696 2.400469-20.804064 3.400664-4.700918 0.700137-9.601875 0.800156-14.302793 1.400274-8.101582 1.100215-16.203165 1.200234-24.404767 1.800352-9.101778 0.700137-18.203555 0.900176-27.305333 0.700136-8.301621-0.200039-16.603243-0.500098-24.904864-1.300254-1.000195-0.10002-1.900371-0.10002-2.900567-0.200039-7.201407-0.10002-14.302794-1.100215-21.5042-1.900371-7.101387-0.800156-14.302794-1.800352-21.40418-2.900566-9.301817-1.500293-18.503614-3.300645-27.705411-5.301036-13.102559-2.900567-26.105099-6.40125-38.80758-10.502051-10.602071-3.400664-21.204141-7.201407-31.506153-11.502246-12.90252-5.301035-25.504981-11.002149-37.907404-17.30338-21.5042-11.002149-42.008205-23.804649-61.512014-38.007423-10.001954-7.201407-19.503809-15.00293-29.005665-22.904474-5.501074-4.600899-10.70209-9.601875-16.003126-14.502832-4.800938-4.500879-9.501856-9.001758-14.202774-13.602657-1.400273-1.300254-2.600508-2.800547-3.900762-4.30084-4.900957-5.301035-10.602071-9.501856-17.703458-10.80211-9.801914-1.800352-19.30377-0.500098-27.105294 6.301231-6.50127 5.701113-10.402032 12.90252-10.502051 21.804258 0 2.900567-0.300059 5.801133 0.400078 8.60168 1.300254 5.701113 4.100801 10.70209 8.001563 15.10295 8.801719 10.001954 18.603634 18.903692 28.405548 27.90545 23.004493 21.204141 47.809338 40.107834 74.114476 56.811096 17.30338 11.002149 35.206876 20.904083 53.71049 29.705802 14.102754 6.801328 28.605587 12.8025 43.208439 18.303575 11.102168 4.20082 22.304356 7.901543 33.606564 11.302208 11.502247 3.400664 23.104513 6.50127 34.806798 9.001758 9.701895 2.10041 19.40379 4.000781 29.105685 5.701113 7.401446 1.300254 14.902911 2.10041 22.304356 3.100606 7.801524 1.000195 15.603047 1.600313 23.404571 2.300449 5.701113 0.500098 11.502247 0.500098 17.20336 1.000196 8.101582 0.700137 16.103145 0.700137 24.104708 0.500097z"  horiz-adv-x="1024" />

    
    <glyph glyph-name="fuwuzhongxin" unicode="&#59271;" d="M700.53080036 65.97789265999995v-163.39286936h-125.68670927V160.24329285c157.10801839 25.13793102 282.79620057 150.82464031 307.93265867 307.93413157h125.68818219C989.61185191 285.93000213000005 863.92366973 128.82198375999997 700.53080036 65.97789265999995z m-377.06160072 0c-169.67772034 62.84409109-289.08105153 219.95210946-314.21750967 402.19953176H134.93839925C160.07633027 311.06793314000004 285.76303955 185.38122386999999 442.87253083 160.24329285v-257.65826955H323.46919964V65.97789265999995z m326.78721161 779.2611325c100.54877827 0 175.96109841-69.12894206 175.96109841-175.96257131 0-87.98054922-75.41232014-182.24594941-131.97156025-232.52181142-37.70616007-37.70616007-100.54877827-75.41232014-182.24594941-119.40185832-81.69717113 43.98953815-144.53978932 81.69569823-182.24594941 119.40185832-62.84409109 56.55924012-131.97156027 144.54126222-131.97156025 232.52181142 0 106.83362924 75.41232014 175.96257132 175.96109841 175.96257131 56.55924012 0 100.55025116-25.13793102 138.25641125-69.12894207 37.70616007 43.99101105 81.69717113 69.12894206 138.25641125 69.12894207z"  horiz-adv-x="1024" />

    
    <glyph glyph-name="shezhi2" unicode="&#58895;" d="M512 204.567273A180.130909 180.130909 0 1 1 332.8 384a179.665455 179.665455 0 0 1 179.2-179.432727zM93.090909 384a471.04 471.04 0 0 0 8.378182 88.669091 157.090909 157.090909 0 0 1 120.552727 81.221818 170.589091 170.589091 0 0 1 6.050909 153.134546A414.487273 414.487273 0 0 0 385.163636 802.909091a153.134545 153.134545 0 0 1 258.094546 0 415.650909 415.650909 0 0 0 156.392727-97.047273 169.658182 169.658182 0 0 1 7.447273-151.970909 156.392727 156.392727 0 0 1 116.363636-78.894545 461.963636 461.963636 0 0 0-3.258182-193.163637 158.487273 158.487273 0 0 1-112.64-80.756363 169.658182 169.658182 0 0 1-11.636363-139.636364A416.116364 416.116364 0 0 0 633.716364-34.909091a152.669091 152.669091 0 0 1-241.338182 0A412.16 412.16 0 0 0 232.727273 60.043636a170.123636 170.123636 0 0 1-10.705455 142.196364 157.323636 157.323636 0 0 1-116.363636 81.221818A461.265455 461.265455 0 0 0 93.090909 384z"  horiz-adv-x="1024" />

    
    <glyph glyph-name="gift-packs" unicode="&#58941;" d="M64 448h896v-448a128 128 0 0 0-128-128H192A128 128 0 0 0 64 0V448zM510.848 616.576L522.112 576H480c-230.72 0-352 41.472-352 141.44C128 837.824 181.568 896 284.16 896c81.28 0 137.6-58.176 179.008-144.576 16.256-34.048 32.128-78.912 47.68-134.848zM405.44 723.84C373.76 790.016 333.056 832 284.16 832 218.112 832 192 803.648 192 717.44c0-42.496 78.528-72.576 245.056-76.928a645.76 645.76 0 0 1-31.616 83.328zM510.848 616.576L522.112 576H480c-230.72 0-352 41.472-352 141.44C128 837.824 181.568 896 284.16 896c81.28 0 137.6-58.176 179.008-144.576 16.256-34.048 32.128-78.912 47.68-134.848z m-105.408 79.36C373.76 740.16 333.056 768 284.16 768c-66.048 0-92.16-18.88-92.16-76.288 0-28.288 78.528-48.256 245.056-51.2A357.76 357.76 0 0 1 405.44 696zM523.264 616.576L512 576h42.112c230.72 0 352 41.472 352 141.44C906.112 837.888 852.544 896 749.952 896c-81.28 0-137.6-58.176-179.008-144.576-16.256-34.048-32.128-78.912-47.68-134.848z m105.408 79.36C660.352 740.16 701.056 768 749.952 768c66.048 0 92.16-18.88 92.16-76.288 0-28.288-78.528-48.256-245.056-51.2 10.624 22.4 21.12 40.96 31.616 55.488zM128 640h768q128 0 128-128T896 384H128Q0 384 0 512t128 128zM384 384h256v-512H384zM384 640c19.072 49.216 61.76 73.792 128 73.792 66.24 0 108.928-24.576 128-73.792v-256H384V640z"  horiz-adv-x="1024" />

    
    <glyph glyph-name="konggouwuche1" unicode="&#59034;" d="M814.796409 72.633608c-54.722893 0-99.307806-45.014912-99.307806-100.320804 0-55.295892 44.584913-100.310804 99.307806-100.310804 54.732893 0 99.317806 45.014912 99.317806 100.310804-0.144 55.295892-44.728913 100.320804-99.317806 100.320804z m0-147.762711a47.410907 47.410907 0 0 0-47.441908 47.441907 47.410907 47.410907 0 0 0 47.441908 47.441907 47.410907 47.410907 0 0 0 47.441907-47.441907 47.513907 47.513907 0 0 0-47.441907-47.441907z m-9.144983 287.078439a283.959445 283.959445 0 0 0-15.28797 0.429999l-395.826227-0.429999s-13.577973 7.289986-13.434973 25.72195c0 17.581966 13.147974 26.009949 13.147974 26.009949h414.68919c44.440913 1.719997 71.58686 4.709991 93.316818 34.866932 6.706987 9.287982 11.713977 20.859959 17.284966 35.296931l53.585895 188.190632c6.859987 33.586934-1.853996 46.448909-11.284978 56.872889-14.724971 16.291968-56.012891 16.434968-56.01289 16.434968H342.528331s-12.860975 7.577985-12.860975 26.439949c0 17.571966 12.860975 24.862951 12.860975 24.862951h563.4349c5.426989-0.429999 56.16589 4.289992 92.312819-30.156941 21.575958-20.58196 27.719946-48.291906 24.289953-78.734846-1.996996-17.715965-59.013885-236.922537-84.019836-271.35947-22.865955-31.723938-55.019893-54.445894-132.894741-54.445894zM342.528331 111.924531c-44.727913 0-58.306886 10.720979-71.74086 27.289947-17.571966 21.871957-19.865961 50.308902-22.855955 63.446876l-89.599825 432.127156c-1.996996 12.430976-15.871969 30.145941-27.862946 37.006928-20.009961 11.284978-103.607798 6.573987-120.176765 7.577985 0 0-10.29098 8.139984-10.29098 24.719952 0 19.004963 10.00398 25.72195 10.00398 25.72195 6.430987 0.562999 16.435968 0.562999 51.015901 0.849998 49.438903 0.143 79.451845 0 110.315784-21.431958 33.432935-23.295955 35.71693-57.016889 40.436921-86.599831l90.879823-430.693159 1.003998-4.709991c1.852996-5.427989 3.993992-9.861981 10.29098-15.43297 7.423986-6.573987 15.28797-8.293984 22.711955-8.569983h1.433998l583.29986 0.143v-51.1599h-573.00888a76.62585 76.62585 0 0 0-5.856989-0.286z m99.307806-39.289923c-54.722893 0-99.307806-45.015912-99.307806-100.321804 0-55.295892 44.584913-100.310804 99.307806-100.310804 54.731893 0 99.316806 45.014912 99.316806 100.310804-0.143 55.295892-44.584913 100.320804-99.316806 100.320804z m0-147.763711a47.410907 47.410907 0 0 0-47.441907 47.441907 47.410907 47.410907 0 0 0 47.441907 47.441907 47.513907 47.513907 0 0 0 47.440907-47.441907 47.513907 47.513907 0 0 0-47.440907-47.441907z m17.151967 808.508421L418.120183 834.69312a22.271957 22.271957 0 0 0 12.287976 28.876943l6.429988 2.559995a22.271957 22.271957 0 0 0 28.866943-12.287976l40.857921-101.314802a22.271957 22.271957 0 0 0-12.287976-28.855943l-6.419988-2.579995a22.271957 22.271957 0 0 0-28.877943 12.287976z m389.529239 0l40.87692 101.313802a22.271957 22.271957 0 0 1-12.287976 28.876943l-6.429988 2.559995A22.271957 22.271957 0 0 1 841.799356 853.842082l-40.85792-101.314802a22.271957 22.271957 0 0 1 12.287976-28.855943l6.286987-2.579995a22.384956 22.384956 0 0 1 29.009944 12.287976z m-216.627577 31.159939V873.850043C631.889766 885.99602 641.893746 896 654.038723 896h6.859986c12.144976 0 22.149957-10.00398 22.149957-22.149957V764.540257a22.261957 22.261957 0 0 0-22.149957-22.149957h-6.859986a22.261957 22.261957 0 0 0-22.149957 22.149957z"  horiz-adv-x="1024" />

    


  </font>
</defs>
</svg>
